<svg width="30" height="30" viewBox="0 0 30 30" fill="none" xmlns="http://www.w3.org/2000/svg">
<g clip-path="url(#clip0_6648_71534)">
<circle cx="15" cy="10" r="5" fill="#FFA349"/>
<path d="M24.9005 11.2504H5.10046C4.81925 11.2447 4.54035 11.3023 4.28444 11.4191C4.02853 11.5358 3.80215 11.7086 3.62209 11.9247C3.44202 12.1407 3.31287 12.3946 3.24422 12.6673C3.17556 12.9401 3.16915 13.2248 3.22546 13.5004L5.28796 23.8129C5.37562 24.2428 5.61126 24.6283 5.95385 24.9024C6.29645 25.1765 6.72431 25.3217 7.16296 25.3129H22.838C23.2766 25.3217 23.7045 25.1765 24.0471 24.9024C24.3897 24.6283 24.6253 24.2428 24.713 23.8129L26.7755 13.5004C26.8318 13.2248 26.8254 12.9401 26.7567 12.6673C26.688 12.3946 26.5589 12.1407 26.3788 11.9247C26.1988 11.7086 25.9724 11.5358 25.7165 11.4191C25.4606 11.3023 25.1817 11.2447 24.9005 11.2504Z" fill="white"/>
<path d="M24.9005 11.2504H5.10046C4.81925 11.2447 4.54035 11.3023 4.28444 11.4191C4.02853 11.5358 3.80215 11.7086 3.62209 11.9247C3.44202 12.1407 3.31287 12.3946 3.24422 12.6673C3.17556 12.9401 3.16915 13.2248 3.22546 13.5004L5.28796 23.8129C5.37562 24.2428 5.61126 24.6283 5.95385 24.9024C6.29645 25.1765 6.72431 25.3217 7.16296 25.3129H22.838C23.2766 25.3217 23.7045 25.1765 24.0471 24.9024C24.3897 24.6283 24.6253 24.2428 24.713 23.8129L26.7755 13.5004C26.8318 13.2248 26.8254 12.9401 26.7567 12.6673C26.688 12.3946 26.5589 12.1407 26.3788 11.9247C26.1988 11.7086 25.9724 11.5358 25.7165 11.4191C25.4606 11.3023 25.1817 11.2447 24.9005 11.2504Z" stroke="#828282" stroke-width="2" stroke-linecap="round" stroke-linejoin="round"/>
<path d="M24.75 4.6875L21 11.25" stroke="#828282" stroke-width="2" stroke-linecap="round" stroke-linejoin="round"/>
<path d="M8.75 11.25L5 4.6875" stroke="#828282" stroke-width="2" stroke-linecap="round" stroke-linejoin="round"/>
</g>
<defs>
<clipPath id="clip0_6648_71534">
<rect width="30" height="30" fill="white"/>
</clipPath>
</defs>
</svg>
