<svg width="10" height="21" viewBox="0 0 10 21" fill="none" xmlns="http://www.w3.org/2000/svg">
<path d="M9.80078 18.9128C9.8005 18.5936 9.67347 18.2875 9.44761 18.062L3.28951 11.9039C3.10312 11.7175 2.95526 11.4963 2.85438 11.2528C2.7535 11.0093 2.70158 10.7483 2.70158 10.4847C2.70158 10.2212 2.7535 9.96019 2.85438 9.7167C2.95526 9.4732 3.10312 9.25196 3.28951 9.06562L9.43958 2.91154C9.6589 2.68446 9.78026 2.38033 9.77751 2.06464C9.77477 1.74895 9.64815 1.44697 9.42491 1.22374C9.20168 1.00051 8.8997 0.873882 8.58401 0.871139C8.26833 0.868396 7.96419 0.989753 7.73711 1.20907L1.58705 7.35834C0.760108 8.1869 0.295675 9.30971 0.295675 10.4803C0.295675 11.6509 0.760108 12.7737 1.58705 13.6023L7.74514 19.7604C7.91328 19.9287 8.1275 20.0433 8.36075 20.09C8.594 20.1366 8.83584 20.1131 9.05575 20.0224C9.27566 19.9317 9.46378 19.778 9.59637 19.5805C9.72897 19.383 9.8001 19.1507 9.80078 18.9128Z" fill="#828282"/>
</svg>
