<svg width="310" height="234" viewBox="0 0 310 234" fill="none" xmlns="http://www.w3.org/2000/svg">
<path fill-rule="evenodd" clip-rule="evenodd" d="M267.39 231.559C332.065 189.999 308.393 112.722 283.801 68.5652C248.806 5.73547 165.964 -16.9474 131.614 33.0986C84.9975 101.027 40.1369 77.2434 15.8314 128.845C-6.0853 175.384 21.6361 220.235 46.6821 231.559H267.39ZM97.5265 58.3669C79.5393 72.2879 49.8113 83.0488 39.9578 68.2062C32.6004 57.1221 41.7135 36.3544 59.5216 20.614C77.3177 4.89758 101.145 -4.60648 114.104 7.00428C129.5 20.8055 111.381 47.6539 97.5265 58.3669Z" fill="#D9E2F7"/>
<path fill-rule="evenodd" clip-rule="evenodd" d="M85.2248 15.6467C72.5764 19.2138 61.7076 27.7243 55.2461 39.5386C63.9292 19.1419 76.9359 9.00347 94.2662 9.1112C102.269 13.9949 87.8405 14.9046 85.2248 15.6467Z" fill="white"/>
<path d="M284.793 54.5127H148.443V166.742H284.793V54.5127Z" fill="#F2F5FC"/>
<path fill-rule="evenodd" clip-rule="evenodd" d="M275.381 70.2775C277.781 70.2775 279.728 68.3145 279.728 65.9205C279.728 63.5146 277.769 61.5635 275.381 61.5635C272.98 61.5635 271.033 63.5265 271.033 65.9205C271.033 68.3145 272.98 70.2775 275.381 70.2775Z" fill="#6885CF"/>
<path fill-rule="evenodd" clip-rule="evenodd" d="M262.888 70.2775C265.288 70.2775 267.235 68.3145 267.235 65.9205C267.235 63.5146 265.276 61.5635 262.888 61.5635C260.487 61.5635 258.54 63.5265 258.54 65.9205C258.54 68.3145 260.487 70.2775 262.888 70.2775Z" fill="#6885CF"/>
<path fill-rule="evenodd" clip-rule="evenodd" d="M134.039 106.917C134.648 106.917 135.138 106.474 135.222 105.912C135.353 105.146 134.768 104.499 134.039 104.499H129.226C128.617 104.499 128.127 104.942 128.043 105.505C127.912 106.259 128.497 106.917 129.226 106.917H134.039ZM61.9468 89.8364C61.9468 89.2259 61.5049 88.7471 60.9435 88.6514C60.1911 88.5197 59.5342 89.1062 59.5342 89.8364V94.6602C59.5342 95.2707 59.9761 95.7615 60.5375 95.8453C61.3019 95.9769 61.9468 95.3904 61.9468 94.6602V89.8364ZM61.7677 104.499C61.1585 104.499 60.6808 104.942 60.5852 105.505C60.4538 106.259 61.0391 106.917 61.7677 106.917H66.581C67.1901 106.917 67.6798 106.474 67.7634 105.912C67.8948 105.146 67.3095 104.499 66.581 104.499H61.7677ZM78.6322 104.499C78.0231 104.499 77.5453 104.942 77.4498 105.505C77.3184 106.259 77.9036 106.917 78.6322 106.917H83.4455C84.0546 106.917 84.5443 106.474 84.6279 105.912C84.7593 105.146 84.1741 104.499 83.4455 104.499H78.6322ZM95.4967 104.499C94.8876 104.499 94.3979 104.942 94.3143 105.505C94.1829 106.259 94.7682 106.917 95.4967 106.917H100.31C100.919 106.917 101.409 106.474 101.492 105.912C101.624 105.146 101.039 104.499 100.31 104.499H95.4967ZM112.361 104.499C111.752 104.499 111.262 104.942 111.179 105.505C111.047 106.259 111.633 106.917 112.361 106.917H117.175C117.784 106.917 118.273 106.474 118.357 105.912C118.488 105.146 117.903 104.499 117.175 104.499H112.361Z" fill="#6885CF"/>
<path fill-rule="evenodd" clip-rule="evenodd" d="M102.329 78.9433L72.2423 84.1981L29.1016 81.0141L60.7763 68.0986L102.352 77.8062C102.973 77.9498 102.95 78.8356 102.329 78.9433Z" fill="#4061B5"/>
<path fill-rule="evenodd" clip-rule="evenodd" d="M101.349 78.1771C92.1999 79.7811 82.7165 81.5766 73.7587 82.8813C72.8152 83.013 70.8086 83.5516 69.8054 82.8813C68.8738 82.2708 67.6197 80.5591 67.3808 79.4699C66.9628 77.4949 67.1658 75.3283 68.0735 73.1737C68.3124 72.6112 68.5991 72.0486 68.9335 71.5578C69.2082 71.1628 69.6143 70.8157 70.0801 70.696C75.0845 69.2835 99.4616 66.315 99.5094 66.1953C99.1153 67.129 98.757 67.9788 98.4942 68.8526C98.4584 68.9723 98.4225 69.104 98.3867 69.2237C98.2314 69.7982 98.1239 70.3848 98.0642 71.0192C98.0523 71.1389 98.0523 71.2586 98.0403 71.3783C98.0284 71.6536 98.0284 71.9408 98.0403 72.2401C98.0881 73.2695 98.3867 74.3348 98.8883 75.3163C98.9361 75.4241 98.9958 75.5318 99.0555 75.6395C99.3183 76.1063 99.6288 76.5492 99.9872 76.9562C100.071 77.0639 100.166 77.1597 100.262 77.2555C100.596 77.6026 100.955 77.9138 101.349 78.1771Z" fill="white"/>
<path fill-rule="evenodd" clip-rule="evenodd" d="M68.5154 77.6503C68.3721 76.214 69.1485 72.7068 70.2353 71.7612C62.6152 70.6719 27.7276 68.266 26.9393 68.5892C26.1272 68.9363 25.6614 69.7024 25.4822 70.2769C24.4431 73.7841 25.7689 79.8648 29.0892 81.0019L72.2299 84.1979C69.7695 82.4263 68.814 80.7027 68.5154 77.6503Z" fill="#6885CF"/>
<path fill-rule="evenodd" clip-rule="evenodd" d="M34.3323 71.8577C45.8939 72.5639 57.4434 73.5095 69.005 74.2038C69.3155 73.1504 69.7455 72.2048 70.2352 71.7739C62.6151 70.6846 27.7275 68.2787 26.9392 68.6019C26.127 68.949 25.6612 69.7151 25.482 70.2896C25.3865 70.6248 25.3029 70.9839 25.2432 71.3669C28.2888 71.4986 31.3106 71.6662 34.3323 71.8577Z" fill="#4061B5"/>
<path fill-rule="evenodd" clip-rule="evenodd" d="M100.548 66.4713L70.08 71.7979L26.9512 68.602L59.8681 62.8564L100.525 65.8729C100.883 65.8848 100.907 66.4115 100.548 66.4713Z" fill="#6885CF"/>
<path fill-rule="evenodd" clip-rule="evenodd" d="M67.1297 65.0589L49.2021 68.195L42.0598 67.6204C41.9284 67.6084 41.9165 67.4169 42.0478 67.393L60.5367 64.1611L67.1177 64.6998C67.3208 64.7117 67.3447 65.023 67.1297 65.0589Z" fill="#4061B5"/>
<path fill-rule="evenodd" clip-rule="evenodd" d="M0.806641 63.7655L22.0187 41.7051L50.7195 42.9739L31.9798 65.2618L0.806641 63.7655Z" fill="#152F54"/>
<path fill-rule="evenodd" clip-rule="evenodd" d="M10.3739 74.706L10.5411 74.0596C3.66154 72.3479 1.89387 65.3336 1.57139 63.7057C1.53556 63.4902 1.36835 63.3346 1.1653 63.2867C0.96226 63.2388 0.77116 63.4304 0.818934 63.6339C1.20113 65.5251 3.19574 72.9105 10.3739 74.706Z" fill="#EEC7AA"/>
<path fill-rule="evenodd" clip-rule="evenodd" d="M10.5283 74.0596L11.436 74.0117L11.1374 75.1249L10.373 74.706L10.5283 74.0596Z" fill="#D7A884"/>
<path fill-rule="evenodd" clip-rule="evenodd" d="M11.4363 74.0123C11.4363 74.0123 12.7023 74.3115 12.9531 73.9404C12.9531 73.9404 13.0248 74.9938 12.5948 75.293C12.5948 75.293 11.5916 75.3768 11.1377 75.1254L11.4363 74.0123Z" fill="#EEC7AA"/>
<path fill-rule="evenodd" clip-rule="evenodd" d="M13.4667 58.6781L38.1305 48.2045C38.7038 47.9651 39.3726 48.2284 39.6115 48.803L43.2185 57.3375C43.4574 57.912 43.1946 58.5824 42.6213 58.8218L17.9575 69.2954C17.3842 69.5348 16.7154 69.2714 16.4765 68.6969L12.8695 60.1624C12.6187 59.5998 12.8934 58.9295 13.4667 58.6781Z" fill="#152F54"/>
<path fill-rule="evenodd" clip-rule="evenodd" d="M31.3702 65.9925C39.91 62.3656 46.4313 58.4754 45.9297 57.3144C45.44 56.1413 38.1185 58.1403 29.5787 61.7671C21.0389 65.394 14.5177 69.2842 15.0193 70.4453C15.5209 71.6183 22.8424 69.6194 31.3702 65.9925Z" fill="#152F54"/>
<path fill-rule="evenodd" clip-rule="evenodd" d="M13.873 62.5444L24.6821 57.96L26.8081 62.9873L15.999 67.5718L13.873 62.5444Z" fill="#4061B5"/>
<path fill-rule="evenodd" clip-rule="evenodd" d="M242.249 181.154H236.026C235.656 181.154 235.345 180.854 235.345 180.471C235.345 180.1 235.644 179.789 236.026 179.789H242.249C242.619 179.789 242.93 180.1 242.93 180.471C242.93 180.842 242.631 181.154 242.249 181.154ZM215.889 188.922H198.63C198.26 188.922 197.949 188.623 197.949 188.24C197.949 187.869 198.248 187.558 198.63 187.558H215.889C216.259 187.558 216.57 187.857 216.57 188.24C216.57 188.623 216.259 188.922 215.889 188.922ZM235.489 188.922H218.672C218.302 188.922 217.991 188.623 217.991 188.24C217.991 187.869 218.29 187.558 218.672 187.558H235.489C235.859 187.558 236.169 187.857 236.169 188.24C236.169 188.623 235.859 188.922 235.489 188.922ZM209.32 185.044H198.63C198.26 185.044 197.949 184.733 197.949 184.362C197.949 183.99 198.248 183.679 198.63 183.679H209.32C209.69 183.679 210.001 183.979 210.001 184.362C209.989 184.733 209.69 185.044 209.32 185.044ZM242.249 185.044H212.294C211.924 185.044 211.613 184.733 211.613 184.362C211.613 183.99 211.912 183.679 212.294 183.679H242.249C242.619 183.679 242.93 183.979 242.93 184.362C242.93 184.733 242.631 185.044 242.249 185.044ZM233.148 181.154H198.618C198.248 181.154 197.938 180.854 197.938 180.471C197.938 180.1 198.236 179.789 198.618 179.789H233.148C233.518 179.789 233.828 180.1 233.828 180.471C233.828 180.842 233.53 181.154 233.148 181.154Z" fill="#5E7FD4"/>
<path fill-rule="evenodd" clip-rule="evenodd" d="M233.924 178.365C235.19 178.365 236.217 177.335 236.217 176.067C236.217 174.798 235.19 173.78 233.924 173.78C232.67 173.78 231.631 174.81 231.631 176.067C231.643 177.335 232.67 178.365 233.924 178.365Z" fill="#5E7FD4"/>
<path fill-rule="evenodd" clip-rule="evenodd" d="M241.485 178.365C242.739 178.365 243.766 177.335 243.766 176.067C243.766 174.798 242.739 173.78 241.485 173.78C240.219 173.78 239.191 174.81 239.191 176.067C239.203 177.335 240.231 178.365 241.485 178.365Z" fill="#5E7FD4"/>
<path fill-rule="evenodd" clip-rule="evenodd" d="M222.314 74.4547L236.36 67.584L284.792 120.144V166.742H224.882L208.938 112.1L222.314 74.4547Z" fill="#D8E1F8"/>
<path fill-rule="evenodd" clip-rule="evenodd" d="M180.523 75.8914L180.535 75.8674C181.813 72.468 184.107 69.3439 186.639 66.7823C189.421 63.9814 191.751 61.5395 192.658 57.5296C193.339 54.5491 193.315 51.4609 193.363 48.4086C193.447 43.465 193.9 38.1504 196.695 33.9251C199.156 30.2264 203.133 27.7127 207.612 27.6529C213.369 27.5691 218.839 31.0403 221.753 35.948C224.823 41.1309 225.133 47.2236 227.367 52.7297C228.609 55.806 230.687 58.547 232.443 61.36C235.011 65.4776 238.092 69.5473 239.275 74.3113C241.998 85.3236 236.038 97.1379 225.539 101.315C224.548 101.71 223.533 102.034 222.494 102.273C222.016 102.381 221.538 102.476 221.06 102.56C213.811 103.781 206.429 102.847 199.383 100.896C195.226 99.7473 191.129 98.2151 187.618 95.7015C181.407 91.2726 177.693 83.3965 180.523 75.8914Z" fill="#0F3970"/>
<path fill-rule="evenodd" clip-rule="evenodd" d="M144.095 80.9788C153.185 91.7516 160.196 98.9814 165.152 102.644C166.705 99.2687 168.007 96.1206 169.082 93.1641C160.315 85.9343 152.97 79.6142 147.022 74.2038C146.556 70.7445 145.553 68.4104 144 67.2134C142.746 67.6324 142.471 68.6498 143.176 70.2657C143.008 71.0198 142.698 71.5465 142.232 71.8458C138.124 69.9425 134.851 67.9556 132.426 65.8848C129.393 68.1231 129.178 71.4507 131.781 75.8557C136.177 78.7643 140.285 80.476 144.095 80.9788Z" fill="#FFDBA8"/>
<path fill-rule="evenodd" clip-rule="evenodd" d="M211.04 62.3408C213.369 63.6814 214.086 65.8959 215.662 66.7218C220.237 67.1527 224.739 67.5118 226.889 68.9961C235.286 79.1704 242.07 88.1598 247.229 95.9761C253.834 102.895 239.86 117.414 232.336 123.83C231.715 124.357 230.007 124.105 228.299 126.595C225.994 125.817 225.683 126.032 224.823 122.836C225.934 120.215 225.946 118.958 226.208 118.324C228.179 113.644 235.202 102.176 236.229 100.501C230.186 95.1861 225.241 90.3144 221.371 85.8855C221.586 87.5852 221.55 89.5124 221.276 91.6311C221.168 92.4929 221.586 93.7856 221.407 94.7193C221.144 96.024 220.643 97.2449 219.353 98.7292C218.588 99.6149 219.472 100.62 218.66 101.698C217.609 103.086 218.768 105.265 217.382 106.941C216.498 108.006 215.698 109.334 215.077 110.711C204.961 118.731 189.888 118.815 186.042 113.608C186.543 109.239 184.131 103.433 185.17 101.386C186.591 98.5855 185.265 96.5267 183.653 94.2046C181.551 98.9446 178.266 104.104 169.452 107.24C163.719 106.821 150.354 93.5343 146.329 85.9334C145.815 84.9519 146.066 83.3599 144.06 81.0018C145.6 77.8418 147.01 76.8124 148.813 75.0887C151.047 78.5001 152.683 77.5545 154.355 79.0627C159.682 83.8626 167.111 92.5527 169.058 92.1218C176.045 82.139 182.076 74.0832 187.153 67.9427C191.094 67.021 194.032 66.5422 195.979 66.4944C196.803 65.5128 198.045 64.6749 199.67 63.9687C198.726 69.2115 198.368 75.4957 198.415 79.9365C205.904 74.4304 210.108 67.2604 211.04 62.3408Z" fill="#FE7C11"/>
<path fill-rule="evenodd" clip-rule="evenodd" d="M232.168 123.938C231.44 124.333 229.875 124.309 228.311 126.583C226.005 125.805 225.695 126.021 224.835 122.825C225.886 120.335 225.946 119.09 226.185 118.42C226.782 120.539 228.776 122.37 232.168 123.938Z" fill="#EF6107"/>
<path fill-rule="evenodd" clip-rule="evenodd" d="M145.565 83.3486C145.29 82.6663 144.86 81.8763 144.096 80.9785C145.636 77.8185 147.046 76.7891 148.849 75.0654C149.781 76.5018 150.617 77.1602 151.393 77.5671C150.032 79.6259 148.085 81.5531 145.565 83.3486Z" fill="#EF6107"/>
<path fill-rule="evenodd" clip-rule="evenodd" d="M223.521 156.065C227.068 134.041 224.19 119.055 214.886 111.095C208.221 114.446 185.994 107.671 186.687 116.733C187.666 129.72 184.608 147.567 182.793 166.743H224.883C224.393 163.259 223.939 159.692 223.521 156.065Z" fill="#0F3970"/>
<path fill-rule="evenodd" clip-rule="evenodd" d="M196.003 66.471C196.039 68.5777 196.134 75.592 198.487 79.8173C198.439 75.3765 198.75 69.1881 199.694 63.9453C198.069 64.6515 196.839 65.4894 196.003 66.471Z" fill="#EF6107"/>
<path fill-rule="evenodd" clip-rule="evenodd" d="M211.04 62.3408C210.108 67.2604 205.904 74.4304 198.439 79.9126C205.725 77.3271 215.328 70.7796 215.662 66.7218C214.086 65.9078 213.369 63.6934 211.04 62.3408Z" fill="#EF6107"/>
<path fill-rule="evenodd" clip-rule="evenodd" d="M224.919 122.717L224.835 122.837C224.035 121.975 223.271 120.12 222.136 119.414C221.682 119.126 220.977 119.857 220.5 119.641C218.218 118.564 215.698 118.253 213.656 119.785C213.142 120.168 212.868 120.922 212.796 122.705C212.88 125.147 214.934 125.626 217.776 124.465C221.586 128.63 224.119 129.983 226.185 128.523C226.913 127.864 227.618 127.23 228.311 126.596C226.591 125.913 225.659 125.051 224.919 122.717Z" fill="#FFDBA8"/>
<path fill-rule="evenodd" clip-rule="evenodd" d="M199.586 60.8808C200.064 62.6882 200.016 64.2204 199.443 65.4892C198.69 70.3848 198.404 75.9029 198.439 79.9128C205.57 74.67 209.726 67.9071 210.897 63.0234C209.953 61.5032 209.571 59.7197 209.738 57.6728C209.559 56.7153 210.108 54.9437 211.363 52.3463C215.626 51.6041 216.689 48.0132 214.91 45.1644C212.915 44.4581 211.84 46.086 211.315 49.0546C210.18 48.887 210.61 47.0676 210.73 46.2177C211.267 43.7519 210.813 42.4233 209.917 40.0891C203.778 26.1203 199.789 33.398 193.399 41.7769C193.602 43.4646 193.758 45.0806 193.853 46.6486C191.93 51.3288 194.856 59.3007 199.586 60.8808Z" fill="#FFDBA8"/>
<path fill-rule="evenodd" clip-rule="evenodd" d="M199.574 60.8811C202.441 61.2042 203.731 61.1803 206.382 60.127C204.829 61.8027 202.668 62.7244 199.897 62.892C199.873 62.2696 199.765 61.5992 199.574 60.8811Z" fill="#F4B280"/>
<path fill-rule="evenodd" clip-rule="evenodd" d="M204.853 31.0166C195.644 32.1418 191.93 38.414 193.495 44.4707C195.967 36.6305 203.969 37.2768 204.853 31.0166Z" fill="#0F3970"/>
<path fill-rule="evenodd" clip-rule="evenodd" d="M216.439 84.4259C216.69 84.1266 216.642 83.6837 216.343 83.4443C216.045 83.193 215.603 83.2408 215.364 83.5401C212.354 87.1789 208.759 90.1235 204.591 92.3379C200.41 94.5643 195.645 96.0845 190.282 96.8865C189.9 96.9463 189.637 97.2934 189.697 97.6885C189.757 98.0715 190.103 98.3348 190.485 98.2869C196.003 97.461 200.924 95.893 205.248 93.5828C209.583 91.2606 213.322 88.2203 216.439 84.4259Z" fill="#EF6107"/>
<path fill-rule="evenodd" clip-rule="evenodd" d="M215.603 90.6504C215.854 90.3511 215.806 89.9082 215.507 89.6688C215.209 89.4294 214.767 89.4654 214.528 89.7646C209.38 96.0009 206 98.2991 198.476 99.4243C198.093 99.4841 197.831 99.8312 197.89 100.226C197.95 100.609 198.296 100.873 198.679 100.813C206.657 99.6158 210.121 97.2936 215.603 90.6504Z" fill="#EF6107"/>
<path fill-rule="evenodd" clip-rule="evenodd" d="M205.534 49.3895C205.856 49.4014 206.286 48.8987 206.406 48.1566C206.465 47.7616 206.43 47.3666 206.298 47.0793C206.25 46.9716 206.131 46.7441 205.928 46.7082H205.892C205.582 46.6962 205.14 47.199 205.02 47.9411C204.96 48.3361 204.996 48.7311 205.128 49.0184C205.175 49.1142 205.295 49.3536 205.486 49.3895H205.534Z" fill="#0F3970"/>
<path fill-rule="evenodd" clip-rule="evenodd" d="M196.074 48.4678C196.337 48.4798 196.791 48.0369 196.91 47.2828C196.97 46.8998 196.934 46.5167 196.803 46.2294C196.719 46.026 196.588 45.8943 196.456 45.8704H196.432C196.17 45.8584 195.716 46.3013 195.596 47.0673C195.537 47.4504 195.572 47.8334 195.704 48.1087C195.799 48.3122 195.919 48.4439 196.05 48.4678H196.074Z" fill="#0F3970"/>
<path fill-rule="evenodd" clip-rule="evenodd" d="M200.828 50.1922C200.577 49.9169 200.159 49.8092 199.765 49.881C199.359 49.9409 199 50.2281 198.809 50.5992C198.606 50.9583 198.594 51.4251 198.761 51.7962C198.929 52.1673 199.263 52.4426 199.633 52.4905C199.382 52.2391 199.239 51.9398 199.179 51.6645C199.12 51.3773 199.179 51.1139 199.299 50.8625C199.43 50.6231 199.621 50.4197 199.884 50.3C200.147 50.1803 200.469 50.1324 200.828 50.1922Z" fill="#F3AD77"/>
<path fill-rule="evenodd" clip-rule="evenodd" d="M198.188 42.0046C197.722 41.825 197.221 41.7293 196.707 41.7412C196.17 41.7652 195.644 41.8849 195.178 42.1123C194.808 42.2919 194.665 42.7347 194.832 43.0938C194.916 43.2734 195.083 43.417 195.274 43.4769C195.346 43.5008 195.429 43.5128 195.513 43.5128C195.62 43.5128 195.716 43.4888 195.811 43.441C196.098 43.3093 196.42 43.2255 196.743 43.2135C197.053 43.2135 197.364 43.2614 197.639 43.3691C197.734 43.4051 197.83 43.429 197.925 43.417C198.224 43.405 198.475 43.2255 198.582 42.9502C198.749 42.5911 198.57 42.1602 198.188 42.0046Z" fill="#0F3970"/>
<path fill-rule="evenodd" clip-rule="evenodd" d="M205.474 44.4223C205.307 44.3625 205.151 44.2907 204.996 44.2069C204.315 43.8238 203.766 43.2253 203.467 42.5191C203.3 42.1481 203.479 41.7052 203.849 41.5496C204.017 41.4777 204.196 41.4658 204.363 41.5256C204.411 41.5376 204.459 41.5615 204.494 41.5855C204.638 41.6693 204.745 41.789 204.817 41.9326C204.984 42.3396 205.318 42.6987 205.713 42.9141C205.796 42.962 205.892 43.0099 205.987 43.0458C206.023 43.0578 206.059 43.0817 206.095 43.0937C206.405 43.2732 206.549 43.6443 206.417 43.9914C206.274 44.3625 205.856 44.554 205.474 44.4223Z" fill="#00303F"/>
<path fill-rule="evenodd" clip-rule="evenodd" d="M205.713 47.1992C206.178 47.1034 206.322 47.8216 205.856 47.9174C205.402 48.0131 205.259 47.295 205.713 47.1992Z" fill="white"/>
<path fill-rule="evenodd" clip-rule="evenodd" d="M196.11 46.2656C196.564 46.1698 196.719 46.888 196.253 46.9838C195.8 47.0796 195.656 46.3614 196.11 46.2656Z" fill="white"/>
<path fill-rule="evenodd" clip-rule="evenodd" d="M196.229 53.8184C197.185 54.4528 198.284 54.8837 199.526 55.0393C201.497 55.2907 203.503 54.8717 205.175 53.9021C205.02 55.0393 204.435 56.0567 203.587 56.7629C202.894 57.3495 202.01 57.7205 201.031 57.7924C199.574 57.9001 198.236 57.3016 197.34 56.2961C196.743 55.6378 196.349 54.7759 196.229 53.8184Z" fill="#F4B280"/>
<path fill-rule="evenodd" clip-rule="evenodd" d="M203.563 54.6444C203.241 55.2548 201.998 55.8533 201.019 55.9132C199.562 55.997 197.961 55.3626 197.52 54.5127C197.723 54.7162 200.792 55.6857 203.563 54.6444Z" fill="white"/>
<path fill-rule="evenodd" clip-rule="evenodd" d="M191.022 61.7669C191.249 61.3839 191.488 61.0248 191.763 60.6776C191.56 61.0487 191.309 61.4078 191.022 61.7669ZM203.205 42.1244C203.3 43.2256 203.945 44.1951 204.925 44.7098C206.274 47.7981 207.66 47.4988 209.225 49.809C210.18 50.0963 210.801 50.7187 211.088 51.6763C211.147 53.1486 209.834 54.5371 209.535 55.9854C209.201 57.8408 209.846 59.7081 209.081 61.4437C207.887 65.0347 208.221 66.5907 210.085 66.1119C211.255 65.8486 212.007 66.3035 212.306 67.4765C212.33 68.7573 212.903 69.7149 214.026 70.3493C214.444 68.5059 215.256 66.8541 216.462 65.3938C216.474 67.3448 222.685 64.0172 222.387 65.9444C224.596 51.3531 225.755 26.2643 206.083 27.1261C203.205 27.2578 200.565 28.754 198.977 31.148C188.168 36.2591 190.27 41.5618 190.33 41.454C190.067 42.9024 189.613 44.3029 188.968 45.6196C188.442 46.637 188.466 47.8579 189.04 48.8514C193.16 54.6927 187.977 62.3175 186.675 65.1783C188.18 64.4721 189.876 63.1913 191.022 61.7789C190.067 63.3948 189.577 65.2621 189.613 67.1653C192.694 66.6626 191.87 63.7659 194.82 64.0292C196.516 64.3165 197.735 63.6222 198.475 61.9464C196.946 59.9714 195.645 57.8288 194.605 55.5545C193.316 51.3172 193.363 46.7687 194.749 42.5672C195.43 39.6466 197.018 37.0132 199.263 35.0262C199.311 37.899 200.792 40.5683 203.205 42.1244Z" fill="#0F3970"/>
<path fill-rule="evenodd" clip-rule="evenodd" d="M268.884 232.062L46.6706 231.559L46.1689 228.531L48.713 221.433L62.3885 219.41L283.204 219.087L268.884 232.062Z" fill="#BDCDF4"/>
<path fill-rule="evenodd" clip-rule="evenodd" d="M180.022 189.257L178.35 188.91C177.788 188.79 177.227 189.162 177.12 189.724L176.988 190.359C176.833 191.113 176.51 191.22 176.355 191.22C175.913 191.22 175.471 191.256 175.041 191.292C174.91 191.304 174.492 191.352 174.217 190.526L174.026 189.964C173.847 189.413 173.25 189.114 172.712 189.293L171.088 189.82C170.539 189.999 170.24 190.598 170.419 191.137L170.598 191.699C170.849 192.477 170.694 192.621 170.431 192.788C170.061 193.016 169.691 193.231 169.344 193.495C169.034 193.722 168.878 193.949 168.162 193.315L167.72 192.92C167.29 192.537 166.621 192.573 166.239 193.004L165.104 194.285C164.722 194.716 164.758 195.386 165.188 195.769L165.63 196.164C166.346 196.798 166.143 196.978 165.94 197.313C165.725 197.684 165.546 198.079 165.367 198.474C165.236 198.761 165.104 198.929 164.316 198.761L163.743 198.642C163.181 198.522 162.62 198.893 162.512 199.456L162.166 201.131C162.047 201.694 162.417 202.257 162.978 202.364L163.563 202.484C164.411 202.664 164.411 203.082 164.423 203.214C164.435 203.657 164.459 204.1 164.507 204.531C164.531 204.686 164.447 205.022 163.731 205.261L163.11 205.464C162.56 205.644 162.262 206.243 162.441 206.781L162.966 208.409C163.145 208.96 163.743 209.259 164.28 209.079L164.889 208.876C165.63 208.636 165.892 208.912 165.988 209.055C166.239 209.486 166.502 209.845 166.776 210.264C166.884 210.42 167.015 210.719 166.49 211.318L166.095 211.761C165.713 212.192 165.749 212.85 166.179 213.245L167.457 214.382C167.887 214.765 168.556 214.729 168.938 214.298L169.332 213.855C169.858 213.257 170.18 213.365 170.335 213.448C170.777 213.676 171.172 213.891 171.625 214.095C171.781 214.167 172.079 214.406 171.924 215.16L171.793 215.794C171.673 216.357 172.043 216.92 172.605 217.027L174.277 217.374C174.838 217.494 175.4 217.123 175.507 216.561L175.639 215.926C175.794 215.172 176.116 215.064 176.272 215.064C176.713 215.064 177.155 215.028 177.597 214.992C177.729 214.981 178.147 214.933 178.421 215.759L178.601 216.321C178.78 216.872 179.377 217.171 179.914 216.991L181.539 216.465C182.088 216.285 182.387 215.687 182.208 215.148L182.028 214.586C181.778 213.807 181.933 213.664 182.196 213.496C182.554 213.269 182.936 213.053 183.282 212.79C183.593 212.563 183.748 212.335 184.465 212.97L184.907 213.365C185.337 213.748 186.006 213.712 186.388 213.281L187.523 212C187.905 211.569 187.869 210.899 187.439 210.516L186.997 210.121C186.28 209.486 186.495 209.307 186.686 208.972C186.901 208.601 187.081 208.206 187.26 207.811C187.391 207.523 187.523 207.356 188.311 207.523L188.884 207.643C189.445 207.763 190.007 207.392 190.114 206.829L190.461 205.153C190.58 204.591 190.21 204.028 189.648 203.92L189.063 203.801C188.215 203.633 188.215 203.202 188.203 203.071C188.191 202.628 188.167 202.185 188.12 201.754C188.096 201.598 188.179 201.263 188.908 201.024L189.517 200.82C190.067 200.641 190.365 200.042 190.186 199.503L189.66 197.876C189.481 197.325 188.884 197.026 188.347 197.205L187.737 197.409C186.997 197.648 186.734 197.373 186.639 197.229C186.388 196.798 186.125 196.439 185.85 196.02C185.743 195.865 185.612 195.565 186.137 194.967L186.531 194.524C186.913 194.093 186.878 193.435 186.448 193.04L185.17 191.903C184.74 191.52 184.071 191.556 183.689 191.986L183.294 192.429C182.757 193.028 182.446 192.92 182.291 192.836C181.849 192.609 181.455 192.393 181.001 192.19C180.846 192.118 180.535 191.891 180.691 191.125L180.822 190.49C180.942 189.928 180.583 189.365 180.022 189.257ZM177.812 201.455C178.744 202.281 178.827 203.717 177.991 204.639C177.167 205.572 175.734 205.656 174.814 204.818C173.883 203.992 173.811 202.556 174.635 201.634C175.459 200.712 176.881 200.629 177.812 201.455ZM171.04 198.426C171.219 198.223 171.518 198.211 171.721 198.39C171.924 198.57 171.936 198.869 171.757 199.073C170.634 200.329 170.132 201.921 170.216 203.489C170.3 205.046 170.992 206.578 172.246 207.703C172.45 207.882 172.461 208.182 172.282 208.385C172.103 208.589 171.805 208.601 171.602 208.421C170.144 207.116 169.356 205.357 169.249 203.537C169.165 201.742 169.75 199.887 171.04 198.426ZM182.267 206.937C182.124 207.164 181.825 207.224 181.598 207.08C181.371 206.937 181.312 206.638 181.455 206.41C182.148 205.321 182.458 204.052 182.399 202.819C182.339 201.574 181.897 200.353 181.085 199.336C180.918 199.132 180.953 198.821 181.156 198.654C181.36 198.486 181.67 198.522 181.837 198.725C182.769 199.898 183.282 201.311 183.354 202.759C183.438 204.208 183.079 205.668 182.267 206.937ZM181.885 196.882C185.337 199.97 185.635 205.273 182.554 208.72C179.484 212.18 174.193 212.479 170.742 209.391C167.29 206.302 166.991 201 170.073 197.552C173.142 194.105 178.433 193.794 181.885 196.882Z" fill="#96AEE8"/>
<path fill-rule="evenodd" clip-rule="evenodd" d="M154.833 159.788L152.54 159.321C151.764 159.166 151.011 159.668 150.844 160.434L150.665 161.308C150.45 162.338 150.008 162.493 149.793 162.493C149.196 162.493 148.587 162.541 147.989 162.589C147.81 162.601 147.225 162.673 146.867 161.536L146.616 160.758C146.377 160.004 145.553 159.597 144.812 159.836L142.591 160.566C141.838 160.817 141.432 161.631 141.671 162.374L141.922 163.14C142.268 164.205 142.053 164.396 141.695 164.624C141.193 164.935 140.692 165.234 140.214 165.581C139.784 165.893 139.581 166.204 138.602 165.33L138.005 164.791C137.419 164.265 136.512 164.313 135.986 164.911L134.433 166.659C133.908 167.245 133.956 168.155 134.553 168.682L135.15 169.22C136.129 170.094 135.843 170.334 135.58 170.8C135.281 171.315 135.042 171.854 134.792 172.38C134.613 172.763 134.433 173.003 133.346 172.775L132.558 172.608C131.782 172.452 131.029 172.955 130.862 173.721L130.396 176.019C130.241 176.797 130.743 177.551 131.507 177.719L132.307 177.886C133.466 178.126 133.466 178.712 133.478 178.892C133.502 179.49 133.514 180.101 133.585 180.699C133.609 180.915 133.514 181.382 132.51 181.705L131.662 181.98C130.91 182.22 130.504 183.034 130.743 183.788L131.471 186.014C131.71 186.768 132.534 187.175 133.275 186.936L134.111 186.66C135.126 186.325 135.484 186.708 135.604 186.912C135.95 187.498 136.309 187.989 136.691 188.564C136.834 188.767 137.025 189.186 136.297 190L135.747 190.61C135.222 191.197 135.269 192.107 135.867 192.633L137.61 194.189C138.196 194.716 139.103 194.668 139.629 194.07L140.178 193.459C140.907 192.645 141.337 192.789 141.552 192.897C142.161 193.208 142.698 193.507 143.319 193.782C143.534 193.878 143.953 194.201 143.738 195.243L143.558 196.117C143.403 196.895 143.905 197.649 144.669 197.816L146.962 198.283C147.739 198.439 148.491 197.936 148.658 197.17L148.837 196.296C149.052 195.267 149.494 195.111 149.709 195.111C150.307 195.111 150.916 195.063 151.513 195.015C151.692 195.003 152.277 194.932 152.636 196.069L152.886 196.847C153.125 197.601 153.949 198.008 154.69 197.768L156.911 197.038C157.664 196.799 158.07 195.973 157.831 195.231L157.58 194.465C157.234 193.399 157.437 193.208 157.807 192.98C158.309 192.669 158.81 192.37 159.288 192.023C159.718 191.712 159.921 191.4 160.901 192.274L161.498 192.813C162.083 193.34 162.991 193.292 163.516 192.693L165.069 190.946C165.595 190.359 165.547 189.449 164.95 188.923L164.352 188.384C163.373 187.51 163.66 187.271 163.922 186.804C164.221 186.289 164.46 185.751 164.711 185.212C164.89 184.829 165.069 184.59 166.156 184.817L166.944 184.985C167.721 185.14 168.473 184.637 168.64 183.859L169.106 181.561C169.261 180.783 168.76 180.029 167.995 179.862L167.195 179.694C166.036 179.455 166.025 178.868 166.025 178.688C166.001 178.09 165.977 177.48 165.917 176.881C165.893 176.666 165.989 176.199 166.992 175.876L167.84 175.6C168.592 175.349 168.998 174.535 168.76 173.793L168.031 171.566C167.78 170.812 166.968 170.405 166.228 170.645L165.391 170.92C164.376 171.255 164.018 170.872 163.899 170.669C163.552 170.082 163.194 169.591 162.812 169.017C162.668 168.813 162.477 168.394 163.206 167.58L163.755 166.97C164.281 166.383 164.233 165.474 163.636 164.947L161.892 163.391C161.307 162.864 160.399 162.912 159.873 163.511L159.324 164.121C158.596 164.935 158.166 164.791 157.951 164.684C157.341 164.373 156.804 164.073 156.183 163.798C155.968 163.702 155.55 163.379 155.765 162.338L155.944 161.464C156.111 160.71 155.61 159.956 154.833 159.788ZM151.823 176.51C153.089 177.647 153.209 179.598 152.074 180.879C150.94 182.148 148.993 182.267 147.715 181.13C146.449 179.993 146.329 178.042 147.464 176.761C148.599 175.481 150.545 175.373 151.823 176.51ZM142.543 172.356C142.782 172.081 143.2 172.057 143.475 172.309C143.749 172.548 143.773 172.967 143.523 173.242C141.982 174.966 141.289 177.156 141.42 179.287C141.54 181.43 142.483 183.524 144.203 185.056C144.478 185.296 144.502 185.715 144.251 185.99C144.012 186.265 143.594 186.289 143.319 186.038C141.325 184.254 140.238 181.837 140.095 179.359C139.963 176.893 140.764 174.355 142.543 172.356ZM157.927 184.015C157.736 184.326 157.318 184.41 157.019 184.219C156.708 184.027 156.625 183.608 156.816 183.309C157.771 181.813 158.189 180.089 158.106 178.389C158.022 176.689 157.413 175.014 156.314 173.625C156.087 173.338 156.135 172.919 156.422 172.704C156.708 172.476 157.126 172.524 157.353 172.811C158.631 174.427 159.324 176.366 159.432 178.329C159.527 180.28 159.037 182.279 157.927 184.015ZM157.389 170.238C162.119 174.463 162.525 181.717 158.309 186.457C154.093 191.197 146.855 191.604 142.125 187.379C137.395 183.153 136.989 175.899 141.205 171.159C145.422 166.431 152.671 166.024 157.389 170.238Z" fill="#96AEE8"/>
<path d="M133.418 191.724H89.835V200.114H133.418V191.724Z" fill="#96AEE8"/>
<path d="M104.585 191.724H89.835V200.114H104.585V191.724Z" fill="#E8ECF8"/>
<path fill-rule="evenodd" clip-rule="evenodd" d="M118.583 194.645C119.276 194.645 119.849 195.207 119.849 195.913C119.849 196.608 119.288 197.182 118.583 197.182C117.891 197.182 117.317 196.62 117.317 195.913C117.317 195.219 117.891 194.645 118.583 194.645ZM106.926 194.645C107.619 194.645 108.192 195.207 108.192 195.913C108.192 196.608 107.631 197.182 106.926 197.182C106.233 197.182 105.66 196.62 105.66 195.913C105.66 195.219 106.233 194.645 106.926 194.645ZM110.808 194.645C111.501 194.645 112.074 195.207 112.074 195.913C112.074 196.608 111.513 197.182 110.808 197.182C110.115 197.182 109.542 196.62 109.542 195.913C109.554 195.219 110.115 194.645 110.808 194.645ZM114.702 194.645C115.394 194.645 115.968 195.207 115.968 195.913C115.968 196.608 115.406 197.182 114.702 197.182C114.009 197.182 113.436 196.62 113.436 195.913C113.436 195.219 113.997 194.645 114.702 194.645Z" fill="white"/>
<path fill-rule="evenodd" clip-rule="evenodd" d="M89.8352 191.4H133.728V200.426H89.5127V191.4H89.8352ZM133.107 192.035H90.1457V199.791H133.107V192.035Z" fill="#96AEE8"/>
<path fill-rule="evenodd" clip-rule="evenodd" d="M91.3281 193.22H103.093V193.782H91.3281V193.22ZM91.3281 197.96H103.093V198.522H91.3281V197.96ZM91.3281 196.38H103.093V196.942H91.3281V196.38ZM91.3281 194.8H103.093V195.362H91.3281V194.8Z" fill="white"/>
<path fill-rule="evenodd" clip-rule="evenodd" d="M122.537 194.645C123.229 194.645 123.803 195.207 123.803 195.913C123.803 196.608 123.241 197.182 122.537 197.182C121.844 197.182 121.271 196.62 121.271 195.913C121.271 195.219 121.844 194.645 122.537 194.645ZM126.43 194.645C127.123 194.645 127.696 195.207 127.696 195.913C127.696 196.608 127.135 197.182 126.43 197.182C125.737 197.182 125.164 196.62 125.164 195.913C125.164 195.219 125.726 194.645 126.43 194.645ZM130.312 194.645C131.005 194.645 131.578 195.207 131.578 195.913C131.578 196.608 131.017 197.182 130.312 197.182C129.619 197.182 129.046 196.62 129.046 195.913C129.046 195.219 129.619 194.645 130.312 194.645Z" fill="white"/>
<path d="M133.418 201.168H89.835V209.559H133.418V201.168Z" fill="#96AEE8"/>
<path d="M104.585 201.168H89.835V209.559H104.585V201.168Z" fill="#E8ECF8"/>
<path fill-rule="evenodd" clip-rule="evenodd" d="M118.583 204.088C119.276 204.088 119.849 204.65 119.849 205.357C119.849 206.051 119.288 206.625 118.583 206.625C117.891 206.625 117.317 206.063 117.317 205.357C117.317 204.662 117.891 204.088 118.583 204.088ZM106.926 204.088C107.619 204.088 108.192 204.65 108.192 205.357C108.192 206.051 107.631 206.625 106.926 206.625C106.233 206.625 105.66 206.063 105.66 205.357C105.66 204.662 106.233 204.088 106.926 204.088ZM110.808 204.088C111.501 204.088 112.074 204.65 112.074 205.357C112.074 206.051 111.513 206.625 110.808 206.625C110.115 206.625 109.542 206.063 109.542 205.357C109.554 204.662 110.115 204.088 110.808 204.088ZM114.702 204.088C115.394 204.088 115.968 204.65 115.968 205.357C115.968 206.051 115.406 206.625 114.702 206.625C114.009 206.625 113.436 206.063 113.436 205.357C113.436 204.662 113.997 204.088 114.702 204.088Z" fill="white"/>
<path fill-rule="evenodd" clip-rule="evenodd" d="M89.8352 200.845H133.728V209.87H89.5127V200.845H89.8352ZM133.107 201.479H90.1457V209.236H133.107V201.479Z" fill="#96AEE8"/>
<path fill-rule="evenodd" clip-rule="evenodd" d="M91.3281 202.664H103.093V203.227H91.3281V202.664ZM91.3281 207.404H103.093V207.967H91.3281V207.404ZM91.3281 205.824H103.093V206.387H91.3281V205.824ZM91.3281 204.244H103.093V204.807H91.3281V204.244Z" fill="white"/>
<path fill-rule="evenodd" clip-rule="evenodd" d="M122.537 204.088C123.229 204.088 123.803 204.65 123.803 205.357C123.803 206.051 123.241 206.625 122.537 206.625C121.844 206.625 121.271 206.063 121.271 205.357C121.271 204.662 121.844 204.088 122.537 204.088ZM126.43 204.088C127.123 204.088 127.696 204.65 127.696 205.357C127.696 206.051 127.135 206.625 126.43 206.625C125.737 206.625 125.164 206.063 125.164 205.357C125.164 204.662 125.726 204.088 126.43 204.088ZM130.312 204.088C131.005 204.088 131.578 204.65 131.578 205.357C131.578 206.051 131.017 206.625 130.312 206.625C129.619 206.625 129.046 206.063 129.046 205.357C129.046 204.662 129.619 204.088 130.312 204.088Z" fill="white"/>
<path d="M133.418 210.6H89.835V218.99H133.418V210.6Z" fill="#96AEE8"/>
<path d="M104.585 210.6H89.835V218.99H104.585V210.6Z" fill="#E8ECF8"/>
<path fill-rule="evenodd" clip-rule="evenodd" d="M118.583 213.532C119.276 213.532 119.849 214.095 119.849 214.801C119.849 215.495 119.288 216.07 118.583 216.07C117.891 216.07 117.317 215.507 117.317 214.801C117.317 214.095 117.891 213.532 118.583 213.532ZM106.926 213.532C107.619 213.532 108.192 214.095 108.192 214.801C108.192 215.495 107.631 216.07 106.926 216.07C106.233 216.07 105.66 215.507 105.66 214.801C105.66 214.095 106.233 213.532 106.926 213.532ZM110.808 213.532C111.501 213.532 112.074 214.095 112.074 214.801C112.074 215.495 111.513 216.07 110.808 216.07C110.115 216.07 109.542 215.507 109.542 214.801C109.554 214.095 110.115 213.532 110.808 213.532ZM114.702 213.532C115.394 213.532 115.968 214.095 115.968 214.801C115.968 215.495 115.406 216.07 114.702 216.07C114.009 216.07 113.436 215.507 113.436 214.801C113.436 214.095 113.997 213.532 114.702 213.532Z" fill="white"/>
<path fill-rule="evenodd" clip-rule="evenodd" d="M89.8352 210.289H133.728V219.302H89.5127V210.289H89.8352ZM133.107 210.923H90.1457V218.68H133.107V210.923Z" fill="#96AEE8"/>
<path fill-rule="evenodd" clip-rule="evenodd" d="M91.3281 212.096H103.093V212.658H91.3281V212.096ZM91.3281 216.848H103.093V217.41H91.3281V216.848ZM91.3281 215.268H103.093V215.83H91.3281V215.268ZM91.3281 213.688H103.093V214.25H91.3281V213.688Z" fill="white"/>
<path fill-rule="evenodd" clip-rule="evenodd" d="M122.537 213.532C123.229 213.532 123.803 214.095 123.803 214.801C123.803 215.495 123.241 216.07 122.537 216.07C121.844 216.07 121.271 215.507 121.271 214.801C121.271 214.095 121.844 213.532 122.537 213.532ZM126.43 213.532C127.123 213.532 127.696 214.095 127.696 214.801C127.696 215.495 127.135 216.07 126.43 216.07C125.737 216.07 125.164 215.507 125.164 214.801C125.164 214.095 125.726 213.532 126.43 213.532ZM130.312 213.532C131.005 213.532 131.578 214.095 131.578 214.801C131.578 215.495 131.017 216.07 130.312 216.07C129.619 216.07 129.046 215.507 129.046 214.801C129.046 214.095 129.619 213.532 130.312 213.532Z" fill="white"/>
<path fill-rule="evenodd" clip-rule="evenodd" d="M63.3314 142.431L52.4746 145.471L52.9165 137.775C54.2303 134.854 56.7385 131.981 57.276 127.792L63.4987 132.508C63.1881 136.662 64.5258 136.65 64.5736 139.642C64.5975 141.007 62.4237 141.342 63.3314 142.431Z" fill="#FFDBA8"/>
<path fill-rule="evenodd" clip-rule="evenodd" d="M63.5226 134.926C59.0915 136.602 57.7061 129.276 57.7061 129.276L64.0601 131.706C63.7854 132.568 63.4988 133.753 63.5226 134.926Z" fill="#E79455"/>
<path fill-rule="evenodd" clip-rule="evenodd" d="M63.9653 133.993C63.9653 133.993 54.5178 132.341 55.6046 125.997C56.6915 119.653 61.2421 116.326 63.7144 116.876C68.6472 117.978 69.0652 120.144 69.2085 122.359C69.3638 124.561 68.1694 134.388 63.9653 133.993Z" fill="#FFDBA8"/>
<path fill-rule="evenodd" clip-rule="evenodd" d="M56.5117 129.923C56.5117 129.923 51.5192 124.405 52.5583 119.258C53.8482 112.866 57.6583 113.644 63.4152 113.584C71.0472 112.674 68.7779 117.845 69.3392 121.209C67.8224 121.748 66.6161 121.748 63.7615 120.551C60.3815 119.461 59.5812 124.225 58.136 123.771C56.7028 123.316 56.5714 122.071 56.2489 123.064C55.9264 124.058 57.2283 125.458 56.7506 126.392C55.8548 128.151 56.5117 129.923 56.5117 129.923Z" fill="#0F3970"/>
<path fill-rule="evenodd" clip-rule="evenodd" d="M56.8108 122.035C55.6403 122.346 55.485 125.231 56.3927 125.709C56.2375 127.349 57.9215 126.763 58.1485 126.607C59.2115 125.901 59.1159 121.412 56.8108 122.035Z" fill="#FFDBA8"/>
<path fill-rule="evenodd" clip-rule="evenodd" d="M103.009 228.459C98.3513 228.387 94.8638 228.327 93.2514 227.812C91.5195 227.262 91.8778 226.196 92.8692 224.509C97.2645 226.532 96.094 224.09 98.1483 224.401C99.5935 225.562 101.731 226.352 104.562 226.747C105.768 227.633 105.279 228.423 103.009 228.459Z" fill="#14244D"/>
<path fill-rule="evenodd" clip-rule="evenodd" d="M97.025 157.263H68.2168C67.6554 157.263 67.0582 157.73 66.9149 158.292L61.791 177.851C61.6358 178.413 61.9821 178.88 62.5554 178.88H91.3637C91.9251 178.88 92.5222 178.413 92.6656 177.851L97.7894 158.292C97.9327 157.73 97.5864 157.263 97.025 157.263Z" fill="#6885CF"/>
<path fill-rule="evenodd" clip-rule="evenodd" d="M66.2937 157.824L62.8181 171.099C58.6378 169.052 53.6095 165.772 48.3184 161.571C48.1751 159.68 47.9959 158.172 47.7929 157.046C48.2109 156.209 48.6767 155.311 49.1903 154.341C44.3173 154.305 41.3433 153.264 40.2803 151.193C41.5821 147.375 43.4095 143.473 45.7505 139.487C47.3868 137.057 49.5605 135.608 54.338 135.189C54.8994 141.605 64.753 141.522 63.7139 135.848C67.2731 136.805 70.0321 138.505 72.5044 141.091C74.6304 146.345 75.9323 150.02 76.3981 152.091C74.081 153.719 71.8953 154.76 69.829 155.239C69.7335 155.694 69.6618 156.209 69.6021 156.795H67.6195C67.0342 156.783 66.449 157.25 66.2937 157.824Z" fill="#FE7C11"/>
<path fill-rule="evenodd" clip-rule="evenodd" d="M62.8186 171.1L66.2942 157.825C66.4375 157.251 67.0347 156.796 67.5961 156.796H69.5907H96.4043C96.9776 156.796 97.9809 157.526 97.8137 158.089C97.8376 157.622 97.5151 157.263 97.0254 157.263H68.2171C67.6558 157.263 67.0586 157.73 66.9153 158.292L61.7914 177.851C61.7078 178.186 61.7914 178.497 61.9945 178.689C61.5167 178.378 61.0748 177.791 61.1703 177.384L62.8186 171.1Z" fill="#F2F5FC"/>
<path fill-rule="evenodd" clip-rule="evenodd" d="M62.5439 178.892H91.3522C91.4597 178.892 91.5672 178.88 91.6627 178.844C91.0894 180.328 89.5368 180.113 88.9276 180.113H54.7805C52.9292 180.029 52.977 178.736 52.9531 177.479H61.1585C61.1346 177.874 61.5526 178.413 61.9945 178.688C62.1259 178.82 62.317 178.892 62.5439 178.892Z" fill="#4061B5"/>
<path fill-rule="evenodd" clip-rule="evenodd" d="M66.5803 165.306C69.6738 166.874 73.3166 167.353 77.0789 167.544C77.0431 167.676 77.0072 167.819 76.9833 167.963C76.7325 169.555 77.8552 170.896 79.4557 170.896C80.9725 170.896 82.3461 169.687 82.5849 168.19C82.6088 168.023 82.6208 167.867 82.6208 167.712C86.5144 167.819 90.2886 168.035 93.406 169.256L91.268 177.431H63.4033L66.5803 165.306Z" fill="#BDCDF4"/>
<path fill-rule="evenodd" clip-rule="evenodd" d="M80.077 166.204C79.0498 166.204 78.0704 167.042 77.9152 168.083C77.748 169.113 78.4526 169.963 79.4917 169.963C80.5189 169.963 81.4983 169.125 81.6536 168.083C81.8208 167.042 81.1161 166.204 80.077 166.204Z" fill="#F2F5FC"/>
<path fill-rule="evenodd" clip-rule="evenodd" d="M46.9336 174.128C47.5069 172.369 47.9249 170.549 48.1757 168.67C52.0575 170.178 56.4886 171.626 62.1021 173.853L61.3497 176.75C52.8696 177.001 48.0682 176.139 46.9336 174.128Z" fill="#FE7C11"/>
<path fill-rule="evenodd" clip-rule="evenodd" d="M62.102 173.84C56.4885 171.614 52.0573 170.165 48.1756 168.657C44.7597 167.329 41.7738 165.964 38.7998 163.989C38.9192 160.183 39.4925 156.496 41.0572 152.223C42.5024 153.611 45.2136 154.305 49.1908 154.341C48.0442 156.52 47.1007 158.411 46.3721 159.979C52.3559 164.947 58.1247 168.801 62.8186 171.099L62.102 173.84Z" fill="#FFDBA8"/>
<path fill-rule="evenodd" clip-rule="evenodd" d="M75.6343 152.594C76.0643 154.102 76.4704 155.502 76.8407 156.783H69.5908C69.6386 156.209 69.7222 155.682 69.8178 155.227C71.6571 154.808 73.592 153.934 75.6343 152.594Z" fill="#FFDBA8"/>
<path fill-rule="evenodd" clip-rule="evenodd" d="M93.2274 222.965C88.9396 207.392 87.4108 196.451 88.6291 190.143C86.1925 190.49 83.7441 190.598 81.2956 190.466C81.6659 188.779 82.0481 187.091 82.4303 185.379C82.3825 183.057 81.2001 181.333 77.0078 180.101H88.9515C89.3576 180.101 90.1817 180.208 90.8625 179.825C94.7084 180.926 96.5836 182.746 97.2285 184.96C97.6943 191.065 96.4283 198.031 97.5152 223C96.1536 223.156 94.7204 223.144 93.2274 222.965Z" fill="#0F3970"/>
<path fill-rule="evenodd" clip-rule="evenodd" d="M88.748 180.113H88.9391C89.3452 180.113 90.1693 180.221 90.8501 179.838C94.696 180.939 96.5712 182.759 97.2161 184.973C97.6819 191.078 96.4159 198.044 97.5028 223.013C96.7026 223.097 95.8665 223.121 95.0066 223.097C92.797 214.419 87.5298 193.124 93.4539 183.944C92.0684 182.471 90.4918 181.19 88.748 180.113Z" fill="#002480"/>
<path fill-rule="evenodd" clip-rule="evenodd" d="M73.1492 189.365H47.1597C46.228 189.365 45.4756 190.131 45.4756 191.053C45.4756 191.987 46.24 192.741 47.1597 192.741H73.1492C74.0808 192.741 74.8333 191.975 74.8333 191.053C74.8452 190.131 74.0808 189.365 73.1492 189.365Z" fill="#9D390F"/>
<path fill-rule="evenodd" clip-rule="evenodd" d="M48.713 221.433C49.9551 220.188 51.675 219.41 53.5621 219.41H58.0291H66.7599C68.647 219.41 70.3669 220.188 71.6091 221.433C72.8512 222.678 73.6276 224.402 73.6276 226.293V227.681H74.1531V229.393H73.6276H70.785H70.2594V227.681H70.785V226.293C70.785 225.18 70.3311 224.174 69.6025 223.444C68.874 222.714 67.8707 222.259 66.7599 222.259H58.0291H53.5621C52.4513 222.259 51.4481 222.714 50.7195 223.444C49.9909 224.174 49.5371 225.18 49.5371 226.293V227.681H50.0626V229.393H49.5371H46.6945H46.1689V227.681H46.6945V226.293C46.6945 224.39 47.4708 222.678 48.713 221.433Z" fill="#FE7C11"/>
<path d="M61.5641 192.753H58.7334V219.41H61.5641V192.753Z" fill="#FE7C11"/>
<path fill-rule="evenodd" clip-rule="evenodd" d="M51.066 189.257C46.0377 187.45 45.3569 182.435 47.5665 174.846C49.3819 176.33 53.9803 176.964 61.3376 176.713L61.1704 177.371C61.1584 177.395 61.1584 177.431 61.1584 177.455H52.9531C52.977 178.712 52.9292 180.005 54.7805 180.089H76.9958C81.2 181.321 82.3824 183.045 82.4183 185.367C79.7548 197.277 77.39 208.194 74.1771 223.276C73.0902 223.886 71.6092 223.838 69.7221 223.132C68.2052 208.505 68.6233 197.864 70.9642 191.22C64.7416 191.268 58.1128 190.418 51.066 189.257Z" fill="#002480"/>
<path fill-rule="evenodd" clip-rule="evenodd" d="M51.066 189.257C46.0377 187.45 45.3569 182.435 47.5665 174.846C47.9487 175.157 48.4623 175.444 49.0953 175.672C47.2679 183.464 49.2506 187.725 55.1627 188.144C62.0542 189.174 67.7633 189.664 72.3019 189.617C70.3073 202.604 69.961 213.927 71.2748 223.587C70.7851 223.491 70.2596 223.348 69.7101 223.132C68.1933 208.505 68.6113 197.864 70.9523 191.22C64.7416 191.268 58.1128 190.418 51.066 189.257Z" fill="#0F3970"/>
<path fill-rule="evenodd" clip-rule="evenodd" d="M97.049 223.061C97.1804 223.527 97.3715 223.97 97.6581 224.389C96.3085 224.521 96.834 226.257 93.2031 224.665C93.3584 224.21 93.442 223.659 93.4659 223.013C94.708 223.12 95.9024 223.144 97.049 223.061Z" fill="#FFDBA8"/>
<path fill-rule="evenodd" clip-rule="evenodd" d="M74.1653 231.188C71.693 230.171 71.3227 228.495 69.9611 227.86C68.5876 227.214 68.4323 226.077 69.77 224.832C70.7614 225.622 71.9916 226.604 72.6365 226.089C73.0665 225.742 74.5475 225.766 74.8342 226.268C76.1121 229.261 77.9037 228.315 78.2501 229.668C78.2978 231.487 75.718 231.834 74.1653 231.188Z" fill="#14244D"/>
<path fill-rule="evenodd" clip-rule="evenodd" d="M73.7349 223.504C73.711 224.294 73.8185 225.096 74.0574 225.898C73.5319 225.814 72.8869 225.886 72.6242 226.101C72.027 226.58 70.9282 225.778 69.9727 225.024C70.1279 224.593 70.2354 224.042 70.2832 223.372C71.6806 223.791 72.8272 223.839 73.7349 223.504Z" fill="#FFDBA8"/>
<path fill-rule="evenodd" clip-rule="evenodd" d="M49.191 154.342C49.8359 153.18 50.5048 151.624 51.2214 149.661C50.8392 151.948 50.8511 153.587 50.242 155.467C50.7436 158.124 50.9467 160.829 50.8989 163.558C50.0509 162.924 49.191 162.254 48.331 161.571C48.1877 159.68 48.0085 158.172 47.8055 157.047C48.2235 156.197 48.6893 155.299 49.191 154.342ZM71.2988 154.796C70.7972 154.976 70.2955 155.12 69.8058 155.227C69.9969 152.319 70.1164 149.925 70.1761 148.021C70.7374 150.834 71.1077 153.085 71.2988 154.796ZM46.9336 174.128C47.5069 172.368 47.9249 170.549 48.1757 168.669C48.8924 168.945 49.6329 169.22 50.3973 169.507C50.0867 171.578 49.6568 173.637 49.1074 175.696C48.0085 175.277 47.2919 174.762 46.9336 174.128Z" fill="#EF6107"/>
<path fill-rule="evenodd" clip-rule="evenodd" d="M63.7495 123.112C63.3315 123.411 62.2207 123.04 61.5996 123.052C61.2891 123.052 60.4053 123.315 60.1425 123.184C59.3542 122.801 62.3282 121.867 63.7376 122.573C63.9167 122.669 63.9287 122.98 63.7495 123.112Z" fill="#0F3970"/>
<path fill-rule="evenodd" clip-rule="evenodd" d="M66.5212 122.909C68.0619 122.562 70.7015 124.262 69.8415 124.429C69.5549 124.489 68.7786 123.998 68.48 123.914C67.8828 123.747 66.7123 123.819 66.3779 123.424C66.2465 123.256 66.3062 122.957 66.5212 122.909Z" fill="#0F3970"/>
<path fill-rule="evenodd" clip-rule="evenodd" d="M61.9109 125.841C61.469 125.794 61.3018 124.07 62.3767 124.178C62.95 124.25 62.6275 125.925 61.9109 125.841Z" fill="#0F3970"/>
<path fill-rule="evenodd" clip-rule="evenodd" d="M67.8824 126.643C68.3243 126.691 68.8618 125.039 67.7869 124.92C67.2016 124.86 67.1538 126.559 67.8824 126.643Z" fill="#0F3970"/>
<path fill-rule="evenodd" clip-rule="evenodd" d="M65.052 129.264C65.0281 129.073 65.3506 129.085 65.5537 129.061C66.3061 128.977 66.2942 129.348 66.2942 126.224C66.2942 125.614 66.2225 125.278 66.4495 125.29C66.6525 125.302 66.5689 125.53 66.5689 126.224C66.5689 129.611 66.6167 129.204 65.2073 129.372C65.1356 129.396 65.064 129.336 65.052 129.264Z" fill="#ED995A"/>
<path fill-rule="evenodd" clip-rule="evenodd" d="M61.9821 130.438C61.9105 130.091 62.233 130.27 65.2189 130.833C66.0788 131 62.651 133.526 61.9821 130.438Z" fill="white"/>
<path fill-rule="evenodd" clip-rule="evenodd" d="M279.477 220.822H260.654L254.503 196.439H285.198L279.477 220.822Z" fill="#ABBEED"/>
<path d="M286.835 193.268H252.449V196.44H286.835V193.268Z" fill="#96AEE8"/>
<path fill-rule="evenodd" clip-rule="evenodd" d="M269.851 196.439H254.503L260.654 220.822H269.851V196.439Z" fill="#96AEE8"/>
<path d="M269.851 193.268H252.449V196.44H269.851V193.268Z" fill="#6885CF"/>
<path fill-rule="evenodd" clip-rule="evenodd" d="M279.477 221.181H260.654L254.503 217.89H285.198L279.477 221.181Z" fill="#96AEE8"/>
<path fill-rule="evenodd" clip-rule="evenodd" d="M269.851 217.89H254.503L260.654 221.181H269.851V217.89Z" fill="#6885CF"/>
<path fill-rule="evenodd" clip-rule="evenodd" d="M287.492 149.913C287.492 149.769 287.492 149.614 287.504 149.47C287.516 149.099 287.014 148.883 286.763 149.159C285.306 150.727 283.956 152.391 282.726 154.138C282.093 155.06 281.496 156.005 280.971 156.987C280.624 157.645 280.266 158.316 280.099 159.046C279.776 160.386 279.752 161.823 279.704 163.199C279.681 163.846 279.669 164.492 279.633 165.15C279.621 165.378 279.609 165.605 279.585 165.833C279.585 165.881 279.585 165.881 279.561 165.964C279.549 166 279.549 166.024 279.549 166.024C279.43 166.228 279.501 166.455 279.645 166.587C277.101 170.645 274.951 174.87 273.219 179.335C271.487 183.764 269.385 188.145 269.528 193.016C269.528 193.124 269.564 193.208 269.624 193.28H270.329C270.376 193.208 270.412 193.124 270.4 193.016C270.257 188.288 272.311 184.003 274.007 179.706C275.632 175.576 277.59 171.638 279.896 167.856C279.967 168.047 280.146 168.167 280.385 168.071C282.225 167.341 283.968 166.335 285.258 164.803C286.321 163.558 286.966 162.038 287.301 160.446C288.005 156.999 287.456 153.408 287.492 149.913Z" fill="#6885CF"/>
<path fill-rule="evenodd" clip-rule="evenodd" d="M286.93 156.508C286.285 157.154 285.604 157.932 284.816 158.483C285.067 157.657 285.27 156.807 285.485 155.957C286.058 155.359 286.918 155 287.551 154.509C287.993 154.162 287.372 153.551 286.93 153.886C286.572 154.162 286.178 154.401 285.808 154.64C286.082 153.539 286.393 152.438 286.918 151.444C287.181 150.942 286.429 150.499 286.166 151.002C285.413 152.438 285.007 154.018 284.637 155.61C284.565 155.706 284.482 155.802 284.422 155.897C284.303 156.077 284.35 156.256 284.458 156.376C284.291 157.094 284.111 157.812 283.885 158.519C283.956 157.226 284.1 155.933 284.35 154.652C284.458 154.102 283.622 153.862 283.514 154.425C283.144 156.304 282.977 158.219 282.977 160.135C282.977 160.29 283.037 160.398 283.132 160.47C282.666 161.463 282.117 162.409 281.556 163.343C281.508 161.607 281.472 159.823 281.914 158.148C282.057 157.597 281.221 157.37 281.078 157.92C280.504 160.123 280.696 162.469 280.708 164.731C280.242 165.497 279.776 166.287 279.37 167.089C279.119 167.592 279.871 168.035 280.122 167.532C280.504 166.766 280.946 166.036 281.388 165.306C282.678 165.413 283.873 164.803 285.151 164.779C285.712 164.767 285.712 163.893 285.151 163.905C284.052 163.929 283.013 164.384 281.926 164.444C282.105 164.156 282.284 163.869 282.463 163.582C282.547 163.45 282.619 163.319 282.702 163.175C282.75 163.151 282.798 163.127 282.845 163.079C283.729 162.205 284.756 161.499 285.64 160.625C286.046 160.23 285.425 159.608 285.019 160.003C284.637 160.374 284.231 160.721 283.825 161.056C284.028 160.613 284.219 160.17 284.398 159.704C285.628 159.141 286.62 158.052 287.563 157.118C287.945 156.723 287.324 156.101 286.93 156.508Z" fill="#D8E1F8"/>
<path fill-rule="evenodd" clip-rule="evenodd" d="M270.317 186.206C269.803 184.542 269.063 182.842 268.071 181.394C265.79 178.078 262.661 175.457 260.344 172.177C260.391 172.153 260.451 172.129 260.487 172.081C261.777 170.872 262.052 168.861 262.099 167.186C262.123 166.276 262.052 165.378 261.92 164.48C261.765 163.451 261.419 162.482 261.036 161.512C260.164 159.286 258.982 157.203 257.501 155.312C256.546 154.091 254.993 152.283 253.249 152.606C253.225 152.618 253.189 152.618 253.165 152.63C252.915 152.69 252.819 152.942 252.855 153.169C253.548 157.323 252.449 161.548 253.297 165.701C253.894 168.598 255.924 172.081 259.233 172.117C261.466 175.469 264.572 178.114 266.949 181.346C267.964 182.735 268.716 184.303 269.278 185.919C269.827 187.487 270.305 189.306 269.946 190.97C269.827 191.52 270.675 191.76 270.782 191.197C271.177 189.545 270.806 187.798 270.317 186.206Z" fill="#6885CF"/>
<path fill-rule="evenodd" clip-rule="evenodd" d="M260.642 166.838C260.391 167.844 259.937 168.789 259.627 169.759C259.471 168.921 259.28 168.095 259.077 167.269C259.328 167.317 259.603 167.173 259.591 166.862C259.543 165.881 260.439 165.126 260.618 164.181C260.726 163.63 259.89 163.391 259.782 163.953C259.615 164.779 259.018 165.414 258.803 166.204C258.6 165.45 258.373 164.696 258.134 163.953C258.17 163.929 258.193 163.894 258.229 163.846C258.767 163.008 259.065 162.062 259.316 161.117C259.46 160.566 258.623 160.338 258.48 160.889C258.289 161.571 258.098 162.23 257.787 162.852C257.549 162.122 257.298 161.392 257.047 160.662C257.083 160.614 257.119 160.566 257.142 160.494C257.429 159.704 258.002 159.058 258.194 158.22C258.313 157.669 257.477 157.442 257.346 157.992C257.214 158.555 256.916 159.034 256.641 159.536C256.462 159.034 256.271 158.519 256.091 158.016C256.294 157.286 256.39 156.52 256.533 155.778C256.641 155.227 255.793 154.988 255.697 155.551C255.638 155.85 255.59 156.161 255.542 156.46C255.196 155.515 254.861 154.569 254.539 153.623C254.36 153.097 253.512 153.324 253.703 153.851C254.097 155.012 254.515 156.161 254.933 157.31C254.766 157.154 254.598 156.999 254.431 156.831C254.025 156.436 253.416 157.059 253.81 157.454C254.264 157.909 254.754 158.316 255.208 158.77C255.303 158.866 255.399 158.902 255.506 158.902C255.673 159.357 255.841 159.812 255.996 160.267C255.566 160.003 255.136 159.752 254.778 159.381C254.395 158.962 253.774 159.584 254.157 160.003C254.79 160.686 255.817 160.913 256.354 161.667C256.402 161.739 256.462 161.787 256.521 161.811C256.748 162.481 256.975 163.139 257.19 163.81C256.927 163.57 256.617 163.379 256.294 163.211C255.876 162.984 255.423 162.792 255.184 162.361C254.909 161.871 254.157 162.302 254.431 162.804C254.957 163.75 256.115 163.858 256.772 164.636C256.987 164.899 257.286 164.779 257.429 164.552C257.632 165.198 257.823 165.845 258.002 166.503C257.107 165.964 256.306 165.282 255.566 164.54C255.172 164.145 254.551 164.755 254.945 165.162C255.805 166.024 256.76 166.826 257.823 167.413C257.979 167.496 258.122 167.484 258.241 167.413C258.42 168.131 258.588 168.849 258.743 169.579C257.931 168.693 256.904 168.011 256.247 166.982C255.948 166.503 255.184 166.946 255.494 167.425C256.414 168.849 258.05 169.639 258.815 171.183C258.874 171.315 258.97 171.375 259.077 171.399C259.089 171.494 259.113 171.59 259.125 171.686C259.197 172.189 259.89 172.045 259.961 171.602C260.104 171.542 260.224 171.411 260.236 171.219C260.343 169.759 261.179 168.454 261.526 167.054C261.621 166.527 260.773 166.299 260.642 166.838Z" fill="#D8E1F8"/>
<path fill-rule="evenodd" clip-rule="evenodd" d="M291.373 178.305C290.836 175.073 289.701 171.614 287.181 169.388C287.48 169.112 287.241 168.502 286.775 168.645C285.187 169.112 283.741 169.866 282.607 171.087C282.428 171.279 282.248 171.482 282.081 171.698C282.057 171.458 281.842 171.207 281.544 171.279C280.003 171.59 278.785 172.811 277.841 173.996C276.647 175.492 275.703 177.18 274.867 178.892C274.115 180.4 273.47 181.956 272.789 183.5C272.777 183.524 272.753 183.548 272.741 183.572C272.192 184.41 271.905 185.451 271.607 186.409C271.547 186.624 271.475 186.84 271.403 187.055C271.32 184.613 271.021 182.147 271.009 179.73C271.009 179.706 271.009 179.694 271.009 179.682C272.622 178.413 273.995 176.869 274.712 174.918C275.321 173.23 275.261 171.399 274.879 169.675C274.019 165.892 271.678 162.589 269.911 159.201C269.325 158.088 268.788 156.951 268.394 155.754C268.262 155.359 267.653 155.311 267.558 155.754C266.614 159.836 263.771 163.211 262.983 167.341C262.589 169.4 262.888 171.399 263.736 173.302C264.01 173.924 264.452 174.463 264.87 174.989C265.384 175.624 265.933 176.234 266.483 176.833C266.805 177.192 267.14 177.539 267.474 177.898C267.582 178.018 267.689 178.138 267.796 178.257C267.808 178.269 267.832 178.305 267.856 178.329C267.856 178.329 267.856 178.341 267.868 178.341C267.88 178.353 267.88 178.353 267.868 178.329C267.856 178.317 267.856 178.281 267.844 178.257C267.88 178.389 267.976 178.521 268.107 178.58C268.621 179.263 269.182 179.873 269.875 180.4C269.982 180.484 270.09 180.508 270.197 180.472C270.281 183.656 270.794 186.911 270.532 190.095C270.317 190.885 270.137 191.687 270.03 192.489C269.97 192.777 269.899 193.052 269.839 193.339H270.83C271.069 192.501 271.224 191.663 271.332 190.814C271.678 189.389 272.072 187.965 272.55 186.576C272.586 186.481 272.622 186.385 272.658 186.277C272.622 188.707 273.446 191.209 274.377 193.351C275.87 196.763 278.044 199.995 280.72 202.592C281.281 203.143 281.89 203.657 282.535 204.112C282.774 204.28 283.096 204.1 283.18 203.849C283.873 201.694 284.207 199.432 283.992 197.158C283.801 195.099 283.156 193.124 282.213 191.292C281.209 189.341 279.86 187.57 278.426 185.93C277.686 185.08 276.91 184.23 276.038 183.512C275.524 183.081 274.927 182.662 274.234 182.638C274.198 182.638 274.174 182.638 274.151 182.638C274.401 182.076 274.652 181.513 274.915 180.95C275.703 179.215 276.563 177.515 277.602 175.923C278.486 174.559 279.585 173.11 281.09 172.392C281.329 172.284 281.58 172.212 281.83 172.153C281.281 172.931 280.827 173.781 280.397 174.63C280.254 174.654 280.11 174.75 280.075 174.942C279.776 176.294 279.895 177.635 280.636 178.82C281.353 179.969 282.499 180.795 283.586 181.561C283.658 181.609 283.729 181.633 283.801 181.633C284.171 181.968 284.554 182.303 284.924 182.602C286.178 183.656 287.492 184.649 288.686 185.786C289.689 186.732 290.669 187.821 291.075 189.174C291.218 189.653 291.923 189.557 291.935 189.054C291.959 188.156 291.983 187.259 291.983 186.349V185.655C291.899 183.153 291.768 180.711 291.373 178.305Z" fill="#6885CF"/>
<path fill-rule="evenodd" clip-rule="evenodd" d="M272.968 172.249C272.108 173.003 271.367 173.865 270.639 174.739C270.591 173.925 270.519 173.099 270.424 172.285C271.188 171.423 271.976 170.585 272.717 169.711C273.075 169.28 272.466 168.658 272.096 169.089C271.499 169.795 270.877 170.465 270.256 171.148C270.161 170.525 270.041 169.903 269.898 169.28C269.826 168.969 269.755 168.646 269.671 168.323C269.671 168.311 269.683 168.299 269.683 168.287C270.065 167.054 271.033 166.108 271.737 165.067C272.048 164.6 271.295 164.157 270.985 164.624C270.459 165.402 269.814 166.12 269.349 166.934C269.193 166.264 269.038 165.594 268.919 164.923C269.098 164.935 269.289 164.852 269.349 164.612C269.54 163.774 270.041 163.128 270.639 162.529C271.033 162.122 270.412 161.512 270.018 161.907C269.492 162.434 269.026 163.02 268.728 163.691C268.548 162.302 268.525 160.914 268.823 159.537C268.943 158.986 268.095 158.759 267.987 159.31C267.677 160.746 267.688 162.182 267.856 163.631C267.354 162.984 266.793 162.386 266.267 161.739C265.909 161.297 265.3 161.919 265.646 162.362C266.327 163.2 267.103 163.978 267.677 164.899C267.772 165.067 267.927 165.115 268.071 165.103C268.202 165.845 268.369 166.587 268.548 167.329C267.509 166.491 266.494 165.618 265.312 164.995C264.81 164.744 264.368 165.498 264.87 165.749C266.291 166.479 267.45 167.593 268.716 168.55C268.763 168.586 268.811 168.61 268.871 168.622C268.907 168.766 268.943 168.921 268.978 169.065C269.193 169.951 269.349 170.837 269.48 171.71C268.118 170.693 266.506 170.047 265.144 169.017C264.703 168.67 264.261 169.436 264.703 169.771C266.124 170.86 267.856 171.495 269.229 172.632C269.277 172.824 269.444 172.979 269.635 172.991C269.731 173.901 269.791 174.811 269.826 175.72C269.779 175.78 269.731 175.84 269.671 175.9C269.647 175.924 269.623 175.96 269.611 175.996C268.56 175.265 267.474 174.547 266.363 173.913C265.873 173.626 265.431 174.392 265.921 174.667C267.282 175.457 268.596 176.331 269.874 177.252C269.886 178.018 269.898 178.773 269.898 179.539C269.898 180.101 270.77 180.101 270.77 179.539C270.77 178.366 270.758 177.193 270.722 176.019C271.642 174.918 272.526 173.793 273.613 172.847C274.007 172.488 273.386 171.878 272.968 172.249Z" fill="#D8E1F8"/>
<path fill-rule="evenodd" clip-rule="evenodd" d="M282.917 198.762C282.38 198.355 281.831 197.948 281.46 197.386C281.138 196.476 280.791 195.578 280.421 194.692C280.863 195.027 281.293 195.387 281.699 195.782C282.105 196.177 282.714 195.566 282.32 195.159C281.544 194.393 280.648 193.759 279.752 193.136C279.358 192.262 278.94 191.413 278.498 190.563C278.952 190.862 279.43 191.149 279.884 191.472C280.35 191.796 280.779 191.042 280.326 190.718C279.764 190.323 279.167 189.976 278.606 189.581C278.164 189.282 277.674 188.899 277.555 188.348C277.507 188.097 277.304 188.013 277.113 188.037C276.766 187.451 276.42 186.864 276.05 186.289C276.802 186.72 277.519 187.187 278.403 187.319C278.952 187.403 279.191 186.553 278.63 186.481C277.328 186.289 276.36 185.344 275.154 184.913C275.011 184.686 274.855 184.458 274.7 184.231C274.39 183.764 273.637 184.207 273.948 184.674C274.079 184.865 274.199 185.045 274.318 185.236C274.27 185.308 274.234 185.392 274.234 185.499V190.228C274.234 190.79 275.106 190.79 275.106 190.228V186.457C275.524 187.127 275.93 187.798 276.324 188.48C276.217 188.552 276.145 188.66 276.145 188.827C276.145 190.467 275.978 192.095 275.799 193.723C275.739 194.285 276.611 194.273 276.671 193.723C276.814 192.37 276.958 191.03 277.005 189.677C277.602 190.754 278.164 191.843 278.677 192.957C278.606 193.076 278.582 193.232 278.642 193.376C278.403 193.148 277.853 193.388 277.913 193.842C278.068 194.98 278.068 196.141 277.913 197.278C277.841 197.828 278.677 198.068 278.761 197.505C278.94 196.201 278.94 194.908 278.761 193.603C278.761 193.567 278.749 193.531 278.737 193.507C278.761 193.531 278.785 193.555 278.821 193.579C278.892 193.627 278.976 193.675 279.048 193.735C279.502 194.74 279.931 195.758 280.314 196.799C280.063 196.799 279.776 197.014 279.836 197.35C280.003 198.247 279.979 199.181 279.836 200.091C279.752 200.641 280.588 200.881 280.672 200.318C280.791 199.6 280.839 198.882 280.803 198.176C281.317 199.684 281.759 201.216 282.105 202.772C282.225 203.323 283.073 203.083 282.953 202.545C282.702 201.431 282.404 200.318 282.069 199.229C282.213 199.337 282.344 199.444 282.487 199.54C282.929 199.863 283.371 199.097 282.917 198.762Z" fill="#D8E1F8"/>
<path fill-rule="evenodd" clip-rule="evenodd" d="M291.6 182.77C290.944 182.423 290.454 181.884 289.893 181.418C289.534 180.496 289.128 179.598 288.674 178.712C289.224 178.784 289.761 178.904 290.239 179.203C290.717 179.502 291.159 178.748 290.681 178.449C289.916 177.97 289.056 177.898 288.197 177.791C287.671 176.833 287.074 175.911 286.429 175.038C287.42 175.062 288.423 175.265 289.331 175.66C289.845 175.888 290.287 175.133 289.773 174.906C288.519 174.355 287.122 174.092 285.748 174.176C285.641 174.056 285.545 173.924 285.438 173.805C285.246 173.589 285.055 173.374 284.852 173.158C285.306 173.111 285.76 173.027 286.214 172.967C286.954 172.859 287.778 172.727 288.507 172.943C289.045 173.111 289.271 172.261 288.734 172.105C287.205 171.638 285.533 172.309 283.98 172.344C283.359 171.818 282.679 171.363 281.926 171.052C281.412 170.836 281.186 171.674 281.699 171.89C282.093 172.057 282.475 172.285 282.834 172.536C282.834 172.596 282.846 172.668 282.882 172.739C283.156 173.338 282.977 174.164 282.87 174.786C282.75 175.552 282.571 176.33 282.559 177.108C282.547 177.671 283.419 177.671 283.431 177.108C283.443 175.935 283.945 174.643 283.885 173.422C284.243 173.769 284.566 174.128 284.876 174.487C284.924 174.535 284.96 174.583 284.996 174.631C284.864 174.691 284.781 174.822 284.781 175.002C284.781 176.33 284.781 177.659 284.398 178.952C284.243 179.49 285.079 179.73 285.246 179.179C285.593 177.958 285.641 176.701 285.653 175.445C286.25 176.247 286.787 177.085 287.277 177.946C287.217 177.994 287.169 178.066 287.145 178.162C286.835 179.371 287.11 180.652 286.62 181.837C286.405 182.351 287.253 182.579 287.456 182.064C287.862 181.094 287.743 180.053 287.862 179.048C288.268 179.826 288.626 180.64 288.961 181.454C288.937 181.513 288.937 181.585 288.949 181.657C288.818 181.777 288.758 181.968 288.889 182.172C289.248 182.722 288.937 183.596 288.841 184.195C288.758 184.745 289.594 184.985 289.678 184.422C289.701 184.242 289.737 184.063 289.773 183.871C290.143 185.2 290.394 186.601 290.263 187.977C290.203 188.54 291.075 188.528 291.135 187.977C291.29 186.493 290.991 184.973 290.585 183.536C290.537 183.369 290.49 183.213 290.442 183.045C290.657 183.213 290.884 183.369 291.135 183.5C291.66 183.788 292.102 183.034 291.6 182.77Z" fill="#D8E1F8"/>
<path fill-rule="evenodd" clip-rule="evenodd" d="M268.74 189.21C268.884 188.528 268.979 187.834 268.991 187.139C269.493 188.516 269.648 190.048 269.672 191.484C269.576 191.245 269.469 191.006 269.373 190.778C269.17 190.299 268.943 189.833 268.705 189.366C268.716 189.318 268.728 189.27 268.74 189.21ZM269.099 192.502C269.146 192.669 269.182 192.825 269.194 192.945C269.194 192.969 269.194 193.053 269.194 193.088C269.146 193.148 269.111 193.22 269.099 193.28H270.436C270.46 193.232 270.484 193.172 270.496 193.1C270.723 191.089 270.52 188.827 269.827 186.912C269.552 186.158 269.194 185.212 268.597 184.602C268.525 184.41 268.442 184.231 268.346 184.039C268.155 183.668 267.689 183.812 267.57 184.123C267.068 184.147 266.59 184.494 266.172 184.805C265.456 183.608 264.703 182.411 263.879 181.286C263.115 180.233 262.219 178.988 261.013 178.413C260.547 178.186 260.045 178.126 259.568 178.354C259.078 178.581 258.815 179.132 258.648 179.634C258.528 179.718 258.433 179.838 258.349 179.981C257.824 179.586 257.25 179.251 256.629 179.012C256.522 178.832 256.295 178.725 256.068 178.88C253.739 180.496 251.983 182.567 251.052 185.26C249.833 188.767 250.777 192.55 249.845 196.105C249.762 196.452 250.156 196.835 250.49 196.596C251.565 195.806 252.891 195.482 254.026 194.8C255.124 194.154 256.14 193.328 257.083 192.478C258.946 190.814 260.702 188.6 261.216 186.098C261.347 186.038 261.443 185.907 261.419 185.715C261.276 183.776 260.392 181.897 259.006 180.544C259.042 180.484 259.078 180.412 259.114 180.364C259.245 180.317 259.353 180.209 259.4 180.065C259.472 179.802 259.568 179.562 259.723 179.335C259.818 179.179 259.938 179.108 260.045 179.072C260.165 179.036 260.248 179.048 260.427 179.096C260.631 179.156 260.822 179.275 261.001 179.407C262.028 180.113 262.804 181.25 263.509 182.256C264.202 183.249 264.859 184.291 265.48 185.332C262.518 187.941 261.252 192.083 260.893 195.913C260.738 197.541 260.654 199.289 261.084 200.881C261.168 201.168 261.479 201.264 261.729 201.144C264.572 199.768 266.101 196.775 267.223 193.962C267.653 192.873 268.06 191.76 268.382 190.635C268.454 190.79 268.525 190.946 268.597 191.101C268.788 191.592 268.967 192.035 269.099 192.502Z" fill="#96AEE8"/>
<path fill-rule="evenodd" clip-rule="evenodd" d="M258.994 180.555C259.305 180.089 258.552 179.646 258.242 180.112C258.11 180.316 257.967 180.508 257.824 180.711C257.764 180.723 257.704 180.747 257.656 180.783C257.561 180.699 257.43 180.663 257.286 180.687C256.474 180.855 255.698 181.178 254.874 181.202C254.312 181.214 254.312 182.088 254.874 182.076C255.662 182.052 256.39 181.812 257.143 181.621C256.689 182.207 256.259 182.806 255.901 183.464C255.865 183.524 255.829 183.596 255.805 183.656C255.865 183.32 255.53 182.949 255.172 183.177C254.408 183.68 253.524 184.146 252.604 184.254C252.055 184.326 252.043 185.2 252.604 185.128C253.44 185.032 254.229 184.721 254.969 184.326C255.065 184.541 255.148 184.745 255.232 184.96C255.148 185.152 255.077 185.343 254.993 185.535C254.838 185.906 254.682 186.277 254.527 186.66C254.539 186.361 254.229 186.038 253.882 186.229C252.891 186.804 251.637 187.067 250.932 188.049C250.61 188.503 251.362 188.946 251.685 188.491C251.971 188.096 252.473 187.869 252.903 187.665C253.237 187.51 253.584 187.366 253.918 187.199C253.906 187.498 253.954 187.785 254.014 188.072C253.966 188.204 253.906 188.348 253.858 188.479C253.811 188.503 253.751 188.527 253.703 188.575C252.783 189.473 251.732 190.215 250.825 191.113C250.431 191.508 251.04 192.13 251.446 191.735C251.888 191.292 252.365 190.897 252.843 190.502C251.947 192.106 250.968 193.674 250.634 195.506C250.538 196.056 251.374 196.296 251.482 195.733C251.744 194.273 252.413 192.968 253.142 191.675C253.225 192.226 253.321 192.777 253.333 193.339C253.345 193.902 254.217 193.902 254.205 193.339C254.193 192.346 253.906 191.376 253.858 190.395C254.038 190.059 254.217 189.724 254.396 189.389C254.479 189.712 254.551 190.036 254.551 190.371C254.563 190.933 255.435 190.933 255.423 190.371C255.399 189.617 255.101 188.91 254.933 188.18C255.184 187.534 255.399 186.863 255.662 186.217C255.793 186.696 255.889 187.187 255.96 187.689C256.044 188.252 256.88 188.013 256.797 187.462C256.677 186.612 256.462 185.786 256.175 184.984C256.319 184.661 256.462 184.35 256.617 184.027C256.892 183.452 257.25 182.925 257.633 182.411C257.836 183.368 258.182 184.314 258.206 185.295C258.218 185.858 259.09 185.858 259.078 185.295C259.054 183.967 258.433 182.734 258.385 181.429C258.576 181.166 258.791 180.867 258.994 180.555Z" fill="#D8E1F8"/>
<path fill-rule="evenodd" clip-rule="evenodd" d="M267.474 185.272C266.96 185.918 266.506 186.612 266.1 187.331C265.993 187.331 265.873 187.367 265.79 187.438C265.658 187.402 265.515 187.426 265.384 187.546C264.882 188.037 264.285 188.384 263.723 188.791C263.27 189.114 263.7 189.868 264.165 189.545C264.571 189.258 264.989 188.983 265.396 188.683C265.145 189.222 264.906 189.773 264.691 190.323C264.667 190.335 264.631 190.347 264.607 190.359C263.855 190.814 262.899 191.017 262.338 191.736C262.004 192.178 262.613 192.801 262.959 192.358C263.282 191.939 263.771 191.712 264.261 191.496C264.106 191.963 263.95 192.418 263.807 192.897C263.723 192.897 263.64 192.921 263.556 192.98C262.792 193.555 262.016 194.153 261.478 194.967C261.168 195.446 261.92 195.877 262.23 195.41C262.553 194.92 262.983 194.525 263.437 194.153C263.305 194.644 263.174 195.147 263.055 195.638C262.362 196.129 261.681 196.607 261.215 197.326C260.905 197.804 261.657 198.235 261.968 197.768C262.183 197.445 262.457 197.182 262.744 196.942C262.625 197.457 262.505 197.972 262.386 198.475C262.254 199.025 263.102 199.253 263.222 198.702C263.305 198.343 263.389 197.996 263.473 197.649C263.497 197.732 263.508 197.828 263.52 197.924C263.556 198.163 263.843 198.283 264.058 198.223C264.309 198.151 264.404 197.924 264.368 197.685C264.285 197.17 264.141 196.667 263.807 196.272C263.927 195.781 264.058 195.303 264.189 194.812C264.273 195.003 264.356 195.207 264.44 195.398C264.536 195.614 264.846 195.662 265.037 195.554C265.264 195.422 265.288 195.171 265.193 194.955C264.989 194.477 264.775 193.986 264.548 193.507C264.679 193.076 264.81 192.645 264.942 192.226C264.989 192.478 265.037 192.729 265.073 192.992C265.145 193.543 266.017 193.555 265.945 192.992C265.849 192.226 265.682 191.496 265.455 190.766C265.67 190.191 265.909 189.617 266.172 189.054C266.315 189.378 266.447 189.713 266.566 190.048C266.745 190.575 267.593 190.347 267.414 189.82C267.211 189.222 266.948 188.635 266.674 188.061C267.092 187.295 267.557 186.553 268.083 185.87C268.429 185.463 267.82 184.829 267.474 185.272Z" fill="#D8E1F8"/>
<path fill-rule="evenodd" clip-rule="evenodd" d="M238.248 48.5879H291.72V110.975H289.94V50.3714H238.248V48.5879ZM291.72 121.365V142.575H289.94V121.365H291.72Z" fill="#96AEE8"/>
</svg>
