<svg width="364" height="234" viewBox="0 0 364 234" fill="none" xmlns="http://www.w3.org/2000/svg">
<path fill-rule="evenodd" clip-rule="evenodd" d="M309.581 26.3559C306.435 26.3559 303.878 23.7924 303.878 20.6389C303.878 17.4855 306.435 14.9219 309.581 14.9219C312.727 14.9219 315.284 17.4855 315.284 20.6389C315.284 23.7924 312.727 26.3559 309.581 26.3559ZM67.0726 163.633H36.5667C20.1369 163.633 6.71704 177.109 6.71704 193.579C6.71704 210.05 20.1596 223.526 36.5667 223.526H294.6C321.191 223.526 342.938 201.701 342.938 175.044C342.938 148.387 321.191 126.563 294.6 126.563C283.352 126.563 274.142 117.329 274.142 106.077C274.142 94.8016 283.352 85.5908 294.6 85.5908H319.199C330.899 85.5908 340.449 75.9944 340.449 64.288C340.449 52.559 330.899 42.9853 319.199 42.9853H288.082C283.533 42.9853 279.822 39.242 279.822 34.682C279.822 30.1219 283.556 26.3786 288.082 26.3786H293.581C296.727 26.3786 299.284 23.815 299.284 20.6616C299.284 17.5082 296.727 14.9446 293.581 14.9446H273.033C273.033 14.9446 265.18 14.9446 257.599 14.9446C250.018 14.9446 249.18 23.9285 230.035 23.9285C200.434 23.9285 215.235 23.9285 185.634 23.9285C181.538 23.9285 178.188 27.2861 178.188 31.3924C178.188 35.4987 181.538 38.8563 185.634 38.8563H192.785C198.737 38.8563 203.58 43.7339 203.58 49.6778C203.58 55.6217 198.714 60.4994 192.785 60.4994H171.241C142.161 60.4994 138.042 68.1221 132.95 83.2768C127.858 98.4315 101.403 99.6565 101.403 99.6565H65.2396C56.2779 99.6565 48.9682 107.007 48.9682 115.968C48.9682 124.929 56.3005 132.28 65.2396 132.28H67.0952C75.6948 132.28 82.7555 139.336 82.7555 147.979C82.7103 156.577 75.6722 163.633 67.0726 163.633Z" fill="#F0F3FA"/>
<path fill-rule="evenodd" clip-rule="evenodd" d="M304.965 198.933C306.911 196.483 309.672 194.464 310.464 191.424C311.414 187.839 309.31 184.073 309.83 180.421C310.487 175.793 314.922 172.821 317.321 168.828C319.675 164.926 318.566 163.61 318.792 159.05C319.109 152.176 324.744 143.509 332.235 145.846C339.838 148.206 338.594 155.306 337.259 160.638C336.308 164.427 336.942 164.994 337.87 168.782C338.978 173.365 342.599 177.812 341.083 182.281C340.155 185.049 337.44 186.932 336.466 189.677C335.358 192.785 336.693 196.188 337.213 199.455C338.3 206.351 336.738 212.069 331.737 217.763C331.194 218.262 330.65 218.738 330.062 219.192C323.069 218.806 315.194 218.443 306.572 218.103L306.504 218.035C301.932 213.021 300.574 204.446 304.965 198.933Z" fill="#DCE6F3"/>
<path fill-rule="evenodd" clip-rule="evenodd" d="M328.795 152.04C328.908 151.723 329.27 151.564 329.564 151.7C329.858 151.813 330.017 152.176 329.904 152.471C329.315 154.037 328.817 155.67 328.387 157.349C328.568 157.19 328.749 157.054 328.93 156.895C329.745 156.237 330.673 155.67 331.714 155.171C332.008 155.035 332.37 155.148 332.506 155.466C332.642 155.761 332.529 156.124 332.212 156.26C331.261 156.714 330.424 157.235 329.677 157.825C328.976 158.392 328.365 159.028 327.844 159.731C327.075 163.406 326.577 167.354 326.124 171.528C326.826 170.439 327.573 169.463 328.365 168.601C329.745 167.104 331.261 165.947 332.913 165.108C333.208 164.972 333.57 165.085 333.706 165.38C333.841 165.675 333.728 166.038 333.434 166.197C331.895 166.945 330.492 168.034 329.225 169.418C327.957 170.802 326.826 172.481 325.807 174.5L325.694 175.634C325.445 178.13 325.174 180.671 324.88 183.28C324.88 183.302 324.88 183.325 324.88 183.348C324.563 186.047 324.178 188.838 323.703 191.674C324.993 189.655 326.396 187.885 327.889 186.342C330.085 184.074 332.483 182.327 335.109 181.056C335.403 180.92 335.765 181.056 335.901 181.351C336.059 181.646 335.923 182.009 335.606 182.145C333.117 183.348 330.831 185.027 328.727 187.182C326.645 189.337 324.744 191.969 323.047 195.077C322.3 198.82 321.372 202.631 320.105 206.465V206.488C319.494 208.371 318.792 210.277 318.023 212.182C319.833 210.617 321.779 209.256 323.816 208.122C326.667 206.533 329.722 205.354 332.981 204.605C333.298 204.537 333.638 204.741 333.706 205.059C333.773 205.376 333.57 205.694 333.253 205.785C330.085 206.511 327.143 207.645 324.404 209.188C321.689 210.685 319.177 212.613 316.868 214.905C316.325 216.085 315.76 217.287 315.148 218.467L313.836 218.399C315.963 214.292 317.615 210.209 318.928 206.17C319.154 203.244 318.815 200.295 317.887 197.368C316.959 194.396 315.443 191.401 313.315 188.43C313.134 188.157 313.18 187.794 313.451 187.59C313.723 187.409 314.085 187.454 314.289 187.726C316.461 190.812 318.045 193.897 319.018 197.005C319.561 198.775 319.923 200.522 320.082 202.291C321.892 195.78 322.888 189.405 323.612 183.302C322.911 180.716 322.119 178.538 321.236 176.746C320.376 174.954 319.426 173.592 318.407 172.64C318.158 172.413 318.158 172.027 318.385 171.778C318.611 171.528 318.996 171.528 319.222 171.755C320.354 172.821 321.372 174.296 322.3 176.224C322.888 177.404 323.409 178.765 323.929 180.285C324.11 178.674 324.269 177.086 324.427 175.543L324.563 174.318C324.563 174.296 324.563 174.273 324.563 174.25C325.491 165.947 326.351 158.415 328.795 152.04Z" fill="white"/>
<path fill-rule="evenodd" clip-rule="evenodd" d="M325.084 202.155C327.166 201.021 329.678 200.431 331.149 198.548C332.869 196.347 332.529 193.103 333.978 190.698C335.788 187.681 339.771 186.91 342.622 184.845C345.429 182.826 345.044 181.578 346.537 178.47C348.801 173.774 355.273 169.418 359.799 173.252C364.393 177.154 361.451 181.714 358.939 185.049C357.151 187.409 357.423 187.976 356.947 190.902C356.359 194.442 357.559 198.593 355.205 201.27C353.734 202.926 351.29 203.425 349.796 205.036C348.099 206.874 348.031 209.642 347.42 212.069C346.628 215.313 345.202 217.9 342.984 219.987C336.987 219.533 329.949 219.102 322.006 218.716C321.395 217.854 320.897 216.901 320.535 215.88C318.815 211.071 320.399 204.696 325.084 202.155Z" fill="#C4D3F8"/>
<path fill-rule="evenodd" clip-rule="evenodd" d="M355.52 176.564C355.702 176.382 355.973 176.382 356.154 176.564C356.335 176.745 356.335 177.018 356.177 177.199C355.294 178.107 354.479 179.082 353.665 180.148C353.823 180.08 354.004 180.035 354.163 179.99C354.932 179.785 355.747 179.649 356.607 179.627C356.856 179.627 357.059 179.808 357.082 180.058C357.082 180.307 356.901 180.511 356.652 180.534C355.86 180.557 355.113 180.693 354.412 180.874C353.755 181.056 353.144 181.328 352.579 181.646C350.949 183.982 349.433 186.591 347.894 189.359C348.709 188.815 349.501 188.361 350.315 187.975C351.719 187.34 353.122 186.977 354.525 186.909C354.774 186.909 355 187.09 355 187.34C355.023 187.59 354.819 187.816 354.57 187.816C353.28 187.885 351.99 188.225 350.678 188.815C349.388 189.405 348.098 190.244 346.785 191.333L346.378 192.082C345.473 193.738 344.522 195.439 343.549 197.163C343.549 197.186 343.526 197.186 343.526 197.209C342.485 199.001 341.422 200.816 340.245 202.654C341.739 201.633 343.232 200.816 344.748 200.181C346.944 199.251 349.139 198.751 351.334 198.638C351.583 198.638 351.786 198.819 351.809 199.069C351.832 199.319 351.628 199.523 351.379 199.545C349.297 199.636 347.192 200.135 345.088 201.02C343.006 201.905 340.901 203.175 338.797 204.831C337.167 207.214 335.402 209.596 333.388 211.91C332.392 213.044 331.351 214.156 330.265 215.245C331.985 214.7 333.727 214.337 335.492 214.133C337.937 213.861 340.426 213.974 342.915 214.405C343.164 214.451 343.323 214.677 343.277 214.927C343.232 215.177 342.983 215.335 342.757 215.29C340.335 214.859 337.937 214.768 335.583 215.018C333.252 215.267 330.944 215.857 328.658 216.765C327.866 217.491 327.051 218.217 326.191 218.92L324.833 218.852C327.821 216.47 330.378 213.929 332.686 211.297C333.705 209.323 334.338 207.168 334.565 204.854C334.791 202.495 334.61 199.976 334.022 197.277C333.976 197.027 334.135 196.778 334.361 196.732C334.61 196.687 334.836 196.846 334.904 197.073C335.515 199.863 335.696 202.495 335.47 204.945C335.334 206.329 335.063 207.667 334.655 208.938C337.846 204.922 340.426 200.793 342.734 196.755C343.006 194.759 343.096 192.989 343.028 191.492C342.961 189.994 342.712 188.769 342.282 187.794C342.168 187.567 342.282 187.295 342.508 187.204C342.734 187.09 343.006 187.204 343.096 187.431C343.572 188.497 343.843 189.836 343.934 191.446C343.979 192.445 343.956 193.556 343.866 194.759C344.454 193.692 345.043 192.626 345.631 191.605L346.084 190.788C346.084 190.788 346.106 190.766 346.106 190.743C349.116 185.276 351.945 180.284 355.52 176.564Z" fill="white"/>
<path fill-rule="evenodd" clip-rule="evenodd" d="M59.0836 198.933C57.1374 196.483 54.3765 194.464 53.5618 191.424C52.6113 187.839 54.716 184.073 54.1954 180.421C53.5392 175.793 49.1036 172.821 46.7048 168.828C44.3512 164.926 45.4601 163.61 45.2338 159.05C44.9169 152.176 39.2819 143.509 31.7912 145.846C24.1874 148.206 25.4321 155.306 26.7673 160.638C27.7178 164.427 27.1067 164.994 26.1789 168.782C25.07 173.365 21.4491 177.812 22.9653 182.281C23.8932 185.049 26.6089 186.932 27.582 189.677C28.6909 192.785 27.3557 196.188 26.8352 199.455C25.7489 206.351 27.3104 212.069 32.2891 217.763C32.8322 218.262 33.3754 218.738 33.9638 219.192C40.9566 218.806 48.832 218.443 57.4542 218.103L57.5221 218.035C62.0935 213.021 63.4739 204.446 59.0836 198.933Z" fill="#DCE6F3"/>
<path fill-rule="evenodd" clip-rule="evenodd" d="M35.2543 152.04C35.1412 151.723 34.7791 151.564 34.4849 151.7C34.168 151.813 34.0096 152.176 34.1454 152.471C34.7338 154.037 35.2317 155.67 35.6616 157.349C35.5032 157.19 35.3222 157.054 35.1412 156.895C34.3265 156.237 33.3986 155.67 32.3576 155.171C32.0634 155.035 31.7013 155.148 31.5655 155.466C31.4297 155.761 31.5429 156.124 31.8597 156.26C32.8102 156.714 33.6475 157.235 34.3943 157.825C35.0959 158.392 35.7069 159.028 36.2274 159.731C36.9968 163.406 37.4947 167.354 37.9473 171.528C37.2458 170.439 36.499 169.463 35.7069 168.601C34.3265 167.104 32.8102 165.947 31.1582 165.108C30.864 164.972 30.5019 165.085 30.3435 165.38C30.1851 165.675 30.3209 166.038 30.615 166.197C32.1313 166.945 33.5344 168.034 34.8243 169.418C36.0916 170.802 37.2231 172.481 38.2415 174.5L38.3547 175.634C38.6036 178.13 38.8752 180.671 39.1694 183.28C39.1694 183.302 39.1694 183.325 39.1694 183.348C39.4862 186.047 39.8709 188.838 40.3462 191.674C39.0562 189.655 37.6531 187.885 36.1595 186.342C33.9644 184.074 31.5655 182.327 28.9404 181.056C28.6462 180.92 28.2841 181.056 28.1483 181.351C28.0125 181.646 28.1257 182.009 28.4199 182.145C30.9092 183.348 33.1949 185.027 35.2996 187.182C37.3816 189.337 39.2825 191.969 40.9798 195.077C41.7266 198.82 42.6545 202.631 43.8991 206.465V206.488C44.5102 208.371 45.1891 210.277 45.9811 212.182C44.1707 210.617 42.2245 209.256 40.1877 208.122C37.3363 206.533 34.2812 205.354 31.0224 204.605C30.7056 204.537 30.3661 204.741 30.2982 205.059C30.2303 205.376 30.434 205.694 30.7508 205.785C33.9191 206.511 36.8611 207.645 39.5994 209.188C42.315 210.685 44.827 212.613 47.1353 214.905C47.6785 216.085 48.2442 217.287 48.8552 218.467L50.1678 218.399C48.0405 214.292 46.3885 210.209 45.0759 206.17C44.8496 203.244 45.1891 200.295 46.1169 197.368C47.0448 194.396 48.5837 191.401 50.6883 188.43C50.8693 188.157 50.8241 187.794 50.5525 187.59C50.281 187.386 49.8962 187.454 49.7152 187.726C47.5426 190.812 45.9585 193.897 44.9854 197.005C44.4423 198.775 44.0802 200.522 43.9218 202.291C42.1113 195.78 41.1156 189.405 40.3914 183.302C41.093 180.716 41.885 178.538 42.745 176.746C43.605 174.954 44.5554 173.592 45.5738 172.64C45.8227 172.413 45.8227 172.027 45.5964 171.778C45.3701 171.528 44.9854 171.528 44.7591 171.755C43.6276 172.821 42.6092 174.296 41.6813 176.224C41.093 177.404 40.5725 178.765 40.052 180.285C39.8709 178.674 39.7125 177.086 39.5541 175.543L39.4183 174.318C39.4183 174.296 39.4183 174.273 39.4183 174.25C38.5583 165.947 37.6984 158.415 35.2543 152.04Z" fill="white"/>
<path fill-rule="evenodd" clip-rule="evenodd" d="M38.9662 202.155C36.8842 201.021 34.3722 200.431 32.9012 198.548C31.1813 196.347 31.5208 193.103 30.0724 190.698C28.262 187.681 24.279 186.91 21.4276 184.845C18.6214 182.826 19.0061 181.578 17.5125 178.47C15.2495 173.774 8.77714 169.418 4.25104 173.252C-0.342957 177.154 2.62162 181.714 5.11098 185.049C6.89879 187.409 6.62723 187.976 7.10247 190.902C7.69087 194.442 6.49144 198.593 8.84501 201.27C10.316 202.926 12.7601 203.425 14.2537 205.036C15.951 206.874 16.0189 209.642 16.6299 212.069C17.4446 215.313 18.8477 217.9 21.0655 219.987C27.0626 219.533 34.1007 219.102 42.044 218.716C42.655 217.854 43.1529 216.901 43.515 215.88C45.2349 211.071 43.6507 204.696 38.9662 202.155Z" fill="#C4D3F8"/>
<path fill-rule="evenodd" clip-rule="evenodd" d="M8.50542 176.564C8.32438 176.382 8.05283 176.382 7.87178 176.564C7.69074 176.745 7.69074 177.018 7.87178 177.199C8.75437 178.107 9.56907 179.082 10.3838 180.148C10.2254 180.08 10.0443 180.035 9.88588 179.99C9.11644 179.785 8.30176 179.649 7.4418 179.627C7.19286 179.627 6.9892 179.808 6.96656 180.058C6.94393 180.307 7.14759 180.511 7.39652 180.534C8.18859 180.557 8.9354 180.693 9.63695 180.874C10.2932 181.056 10.9043 181.328 11.47 181.646C13.0994 183.982 14.6157 186.591 16.1545 189.359C15.3398 188.815 14.5478 188.361 13.7331 187.975C12.33 187.34 10.9269 186.977 9.5238 186.909C9.27486 186.909 9.04856 187.09 9.04856 187.34C9.02593 187.59 9.22961 187.816 9.47855 187.816C10.7685 187.885 12.0584 188.225 13.3484 188.815C14.6383 189.405 15.9282 190.244 17.2408 191.333L17.6482 192.082C18.5534 193.738 19.5039 195.439 20.477 197.163C20.477 197.186 20.4996 197.186 20.4996 197.209C21.5406 199.001 22.6042 200.816 23.781 202.654C22.2874 201.633 20.7938 200.816 19.2775 200.181C17.0824 199.251 14.8872 198.751 12.6921 198.638C12.4431 198.638 12.2395 198.819 12.2168 199.069C12.2168 199.319 12.3979 199.523 12.6468 199.545C14.7288 199.636 16.8334 200.135 18.9155 201.02C20.9975 201.905 23.1021 203.175 25.2067 204.831C26.8361 207.214 28.6013 209.596 30.6154 211.91C31.6112 213.044 32.6522 214.156 33.7384 215.245C32.0185 214.7 30.276 214.337 28.5108 214.133C26.0667 213.861 23.5773 213.974 21.088 214.405C20.839 214.451 20.6806 214.677 20.7259 214.927C20.7712 215.177 20.9975 215.335 21.2464 215.29C23.6679 214.859 26.0667 214.768 28.4203 215.018C30.7512 215.267 33.0595 215.857 35.3679 216.765C36.1599 217.491 36.9746 218.217 37.8346 218.92L39.1924 218.852C36.2052 216.47 33.6479 213.929 31.3396 211.297C30.3212 209.323 29.6876 207.168 29.4613 204.854C29.235 202.495 29.416 199.976 30.0044 197.277C30.0497 197.027 29.8913 196.778 29.6649 196.732C29.416 196.687 29.1897 196.846 29.1218 197.073C28.5108 199.863 28.3298 202.495 28.5787 204.945C28.7145 206.329 28.986 207.667 29.3934 208.938C26.2025 204.922 23.6226 200.793 21.3143 196.755C21.0427 194.759 20.9522 192.989 21.0201 191.492C21.088 189.994 21.3369 188.769 21.7669 187.794C21.8574 187.567 21.7669 187.295 21.5406 187.204C21.3143 187.09 21.0427 187.204 20.9522 187.431C20.477 188.497 20.2054 189.836 20.1375 191.446C20.0922 192.445 20.1149 193.556 20.2054 194.759C19.617 193.692 19.0286 192.626 18.4628 191.605L18.0102 190.788C18.0102 190.788 17.9876 190.766 17.9876 190.743C14.9325 185.276 12.1037 180.284 8.50542 176.564Z" fill="white"/>
<path fill-rule="evenodd" clip-rule="evenodd" d="M213.492 0.651367C176.084 30.0306 173.73 75.472 215.325 108.504C253.435 73.9747 252.824 32.0724 213.492 0.651367Z" fill="#DCE6F3"/>
<path fill-rule="evenodd" clip-rule="evenodd" d="M212.202 6.09706C212.18 5.71139 212.497 5.39378 212.881 5.37109C213.266 5.37109 213.583 5.66601 213.605 6.05169L214.465 42.5318L232.773 32.3228C233.113 32.1414 233.543 32.2548 233.724 32.5951C233.905 32.9354 233.792 33.3664 233.452 33.5479L214.511 44.1199L214.76 54.2382C214.873 54.4196 214.873 54.6692 214.76 54.8734L214.941 62.6322L236.937 54.4196C237.3 54.2835 237.707 54.465 237.843 54.828C237.978 55.191 237.797 55.5993 237.435 55.7355L214.986 64.1295L215.19 73.2269C215.19 73.2496 215.19 73.2949 215.19 73.3176L215.416 82.5511L231.868 77.0836C232.23 76.9702 232.638 77.1517 232.751 77.5374C232.864 77.9003 232.683 78.3087 232.321 78.4221L215.461 84.0257L216.05 108.482C216.05 108.868 215.755 109.185 215.371 109.208C214.986 109.208 214.669 108.913 214.646 108.527L214.262 92.0795L201.543 86.8616C201.181 86.7254 201.023 86.3171 201.159 85.9541C201.317 85.5911 201.702 85.4323 202.064 85.5684L214.216 90.5595L213.809 73.7941L191.179 65.7857C190.817 65.6496 190.613 65.2639 190.749 64.9009C190.884 64.5379 191.269 64.3337 191.654 64.4698L213.786 72.2967L213.583 63.6758V63.6304L213.379 54.9641L191.473 43.893C191.133 43.7116 190.998 43.3032 191.156 42.9402C191.337 42.5999 191.744 42.4638 192.084 42.6226L213.311 53.3534L213.085 43.7115V43.6662L212.836 33.3664L197.674 23.3616C197.357 23.1574 197.266 22.7037 197.47 22.3861C197.674 22.0685 198.104 21.9777 198.443 22.1819L212.791 31.6649L212.202 6.09706Z" fill="white"/>
<path fill-rule="evenodd" clip-rule="evenodd" d="M280.457 23.6333C232.932 24.4954 203.762 59.3194 217.068 110.795C268.281 106.281 292.971 72.4777 280.457 23.6333Z" fill="#C4D3F8"/>
<path fill-rule="evenodd" clip-rule="evenodd" d="M276.179 27.2182C276.405 26.9006 276.835 26.8325 277.152 27.0594C277.469 27.2862 277.536 27.7173 277.31 28.0349L256.06 57.641L276.812 60.5449C277.197 60.5902 277.469 60.9532 277.401 61.3389C277.355 61.7246 276.993 61.9968 276.609 61.9288L255.132 58.9114L249.226 67.1467C249.203 67.3509 249.067 67.5551 248.864 67.6685L244.337 73.9754L266.832 80.7133C267.194 80.8268 267.421 81.2124 267.307 81.5754C267.194 81.9384 266.81 82.1653 266.447 82.0518L243.478 75.1778L238.182 82.5736C238.159 82.5963 238.159 82.619 238.137 82.6417L232.751 90.151L249.18 95.7319C249.543 95.8453 249.746 96.2537 249.61 96.6167C249.497 96.9796 249.09 97.1838 248.728 97.0477L231.913 91.3307L217.656 111.204C217.43 111.522 217 111.59 216.683 111.363C216.366 111.136 216.298 110.705 216.525 110.387L226.097 97.025L219.082 85.1826C218.878 84.8423 218.991 84.4339 219.331 84.2297C219.67 84.0256 220.1 84.139 220.281 84.4793L226.98 95.7999L236.734 82.188L223.495 62.1103C223.291 61.7926 223.359 61.3616 223.698 61.1347C224.015 60.9079 224.445 60.9986 224.672 61.3389L237.616 80.9629L242.64 73.9754L242.663 73.9527L247.709 66.9198L236.892 44.8684C236.734 44.5281 236.869 44.097 237.209 43.9382C237.548 43.7794 237.978 43.9156 238.137 44.2559L248.637 65.6494L254.25 57.8225L254.272 57.7771L260.269 49.4057L254.182 32.2546C254.046 31.8916 254.25 31.4833 254.612 31.3471C254.974 31.211 255.359 31.4152 255.494 31.7782L261.242 48.0218L276.179 27.2182Z" fill="white"/>
<path fill-rule="evenodd" clip-rule="evenodd" d="M320.105 82.4605C281.678 54.4425 237.436 64.5834 217.114 113.723C260.677 141.037 300.711 128.991 320.105 82.4605Z" fill="#DCE6F3"/>
<path fill-rule="evenodd" clip-rule="evenodd" d="M314.515 82.7094C314.877 82.5959 315.261 82.8001 315.397 83.1631C315.51 83.5261 315.307 83.9118 314.945 84.0479L280.184 94.8467L294.985 109.707C295.256 109.979 295.256 110.432 294.985 110.705C294.713 110.977 294.26 110.977 293.989 110.705L278.668 95.3232L269.005 98.3178C268.846 98.4766 268.62 98.5447 268.394 98.4993L260.993 100.791L274.889 119.757C275.115 120.074 275.047 120.505 274.73 120.732C274.413 120.959 273.983 120.891 273.757 120.573L259.568 101.222L250.9 103.921C250.878 103.921 250.855 103.944 250.81 103.944L242.006 106.689L251.76 121.073C251.964 121.39 251.896 121.821 251.579 122.048C251.262 122.252 250.832 122.184 250.606 121.867L240.603 107.143L217.294 114.38C216.932 114.493 216.525 114.289 216.411 113.926C216.298 113.563 216.502 113.155 216.864 113.041L232.547 108.164L234.063 94.4838C234.108 94.0981 234.448 93.8258 234.833 93.8712C235.217 93.9166 235.489 94.2569 235.444 94.6426L233.973 107.733L249.95 102.764L251.443 78.7392C251.466 78.3535 251.805 78.0586 252.19 78.0813C252.575 78.104 252.869 78.4443 252.847 78.83L251.376 102.311L259.59 99.7697H259.636L267.896 97.2062L272.512 73.0675C272.58 72.6819 272.942 72.4323 273.327 72.5231C273.712 72.5911 273.938 72.9541 273.87 73.3398L269.389 96.7524L278.577 93.8939L278.623 93.8712L288.444 90.8085L293.898 73.4532C294.011 73.0902 294.396 72.8861 294.781 72.9995C295.143 73.1129 295.347 73.4986 295.233 73.8843L290.119 90.3094L314.515 82.7094Z" fill="white"/>
<path fill-rule="evenodd" clip-rule="evenodd" d="M178.46 233.212C272.264 233.212 348.755 228.335 348.755 222.345C348.755 216.356 272.264 211.479 178.46 211.479C84.6569 211.479 8.16577 216.356 8.16577 222.345C8.16577 228.335 84.6569 233.212 178.46 233.212Z" fill="#DCE6F3"/>
<path fill-rule="evenodd" clip-rule="evenodd" d="M231.144 45.8432C231.913 46.6145 232.66 47.3858 233.384 48.1799L126.364 155.488C125.572 154.762 124.803 154.013 124.033 153.242C123.264 152.47 122.517 151.699 121.793 150.905L228.813 43.5972C229.605 44.3458 230.374 45.0718 231.144 45.8432Z" fill="#7D98F6"/>
<path fill-rule="evenodd" clip-rule="evenodd" d="M177.578 35.5664C212.836 35.5664 241.396 64.2197 241.396 99.5428C241.396 134.866 212.836 163.519 177.578 163.519C142.319 163.519 113.76 134.866 113.76 99.5428C113.76 64.2197 142.342 35.5664 177.578 35.5664Z" fill="#A6BEFC"/>
<path fill-rule="evenodd" clip-rule="evenodd" d="M125.686 62.2912C126.749 60.7939 127.881 59.3647 129.08 57.9581C133.629 61.9509 140.916 59.9999 143.564 60.9527C146.189 61.9056 148.09 59.8864 150.557 61.4065C151.394 61.9282 154.539 58.0715 156.486 60.2494C158.047 61.9736 163.049 55.8936 166.285 58.6614C168.616 60.6578 171.218 55.6894 171.309 62.1324C171.331 63.7659 176.944 61.8829 176.944 68.3713C176.944 69.9593 184.389 69.619 175.699 73.6572C175.654 73.6799 178.664 84.9098 178.664 85.9534C178.664 86.7021 183.009 96.2078 175.631 96.0944C174.749 96.0717 166.375 93.6669 166.375 90.8991C165.085 89.9463 165.47 94.3702 162.641 94.0979C161.917 94.0299 156.757 98.8394 153.702 87.8364C152.457 83.3218 159.269 81.711 153.476 81.8244C145.465 81.9606 144.718 67.4184 140.011 79.102C137.182 86.0668 132.882 74.5193 130.325 73.7707C127.971 73.0901 125.957 67.5999 126.07 64.3557C126.07 63.5844 125.912 62.9038 125.686 62.2912Z" fill="#D4DEF7"/>
<path fill-rule="evenodd" clip-rule="evenodd" d="M125.686 62.2912C126.749 60.7939 127.881 59.3647 129.08 57.9581C133.629 61.9509 140.916 59.9999 143.564 60.9527C146.189 61.9056 148.09 59.8864 150.557 61.4065C151.394 61.9282 154.539 58.0715 156.486 60.2494C158.047 61.9736 163.049 55.8936 166.285 58.6614C168.616 60.6578 171.218 55.6894 171.309 62.1324C171.309 62.813 172.259 62.8811 173.368 63.1987C173.368 63.2441 173.368 63.2668 173.368 63.3121C173.368 64.9002 180.813 64.5599 172.123 68.5981C172.078 68.6208 175.088 79.8507 175.088 80.8943C175.088 81.643 179.433 91.1487 172.055 91.0352C171.173 91.0126 162.8 88.6078 162.8 85.84C161.532 84.8871 161.894 89.3111 159.066 89.0388C158.613 88.9934 156.508 90.7857 154.245 89.6513C154.064 89.1069 153.861 88.517 153.68 87.8591C152.435 83.3445 159.247 81.7337 153.453 81.8471C152.141 81.8698 151.009 81.4841 150.036 80.8943C150.67 77.8089 154.788 76.6746 149.9 76.7653C141.889 76.9014 141.142 62.3593 136.412 74.0429C133.606 81.0077 129.306 69.5056 126.749 68.7116C126.274 67.1916 126.002 65.6262 126.025 64.3557C126.07 63.5844 125.912 62.9038 125.686 62.2912Z" fill="#D4DEF7"/>
<path fill-rule="evenodd" clip-rule="evenodd" d="M177.578 35.5664C190.635 35.5664 202.788 39.5139 212.904 46.2745C213.492 51.016 211.863 55.3492 213.492 55.7575C218.72 57.0734 209.509 75.7672 216.344 82.369C222.318 88.1768 218.607 87.6323 221.096 91.5344C226.844 100.518 221.119 102.152 222.929 105.214C226.731 111.657 214.126 121.889 213.04 121.866C201.973 121.64 201.113 123.636 197.945 110.909C197.017 107.143 197.357 103.853 193.374 102.878C183.122 100.337 195.75 91.0353 190.024 84.5696C185.362 79.3063 188.395 77.6275 185.951 70.8215C185.295 64.6053 190.454 58.911 188.44 55.0996C184.321 47.2954 176.446 54.2602 164.882 49.7002C153.657 45.2763 153.272 44.9133 153.182 40.3533C160.718 37.2906 168.955 35.5664 177.578 35.5664Z" fill="#D4DEF7"/>
<path fill-rule="evenodd" clip-rule="evenodd" d="M177.578 35.5664C186.63 35.5664 195.23 37.4494 203.037 40.8524C203.897 46.2518 198.692 59.8411 204.305 65.2859C210.279 71.0937 206.568 70.5492 209.08 74.4513C214.805 83.4352 209.102 85.0687 210.913 88.1314C214.715 94.5744 202.11 104.806 201.023 104.783C199.213 104.738 197.651 104.761 196.339 104.783C195.773 103.899 194.89 103.241 193.442 102.878C183.19 100.337 195.818 91.0353 190.093 84.5696C185.431 79.3063 188.463 77.6275 186.019 70.8215C185.363 64.6053 190.523 58.911 188.509 55.0996C185.567 49.5187 180.701 51.4924 173.935 51.4017C174.455 46.093 178.189 41.3515 176.424 38.0166C175.858 36.9503 175.247 36.1789 174.546 35.5891C175.519 35.5891 176.56 35.5664 177.578 35.5664Z" fill="#D4DEF7"/>
<path fill-rule="evenodd" clip-rule="evenodd" d="M128.153 99.0891C128.696 100.995 129.284 101.766 132.023 102.038C136.368 102.469 128.583 104.352 131.163 107.324C131.57 110.569 134.557 106.371 134.965 110.274C135.033 110.954 135.236 115.355 138.269 113.2C138.608 116.83 143.451 124.181 143.451 124.407C143.451 130.918 138.314 128.65 146.167 133.618C146.506 133.845 148.023 141.468 155.604 137.135C157.482 136.068 156.147 132.733 162.529 132.438C167.44 132.212 168.752 123.886 168.865 128.877C168.956 131.962 173.686 131.191 175.157 124.544C176.854 116.966 174.727 128.741 182.195 122.071C185.612 119.008 186.54 120.891 187.671 112.792C187.965 110.614 183.643 100.723 175.745 103.536C173.663 104.284 168.73 102.129 163.411 102.129C161.171 102.129 154.88 103.241 153.997 101.199C151.938 96.3667 146.19 92.6234 141.166 92.4192C138.246 92.3058 144.175 84.5469 133.697 86.1123C131.842 86.3846 136.255 87.5643 129.782 89.7649C129.714 89.8102 127.248 95.9583 128.153 99.0891Z" fill="#D4DEF7"/>
<path fill-rule="evenodd" clip-rule="evenodd" d="M185.249 106.893C183.235 104.216 180.022 102.038 175.744 103.536C173.662 104.284 168.729 102.129 163.411 102.129C161.17 102.129 154.879 103.241 153.997 101.199C151.937 96.3667 146.189 92.6234 141.165 92.4192C138.246 92.3058 144.175 84.5469 133.697 86.1123C132.792 86.2484 133.38 86.6114 133.471 87.2013C133.765 87.2693 134.104 87.3147 134.466 87.3374C138.811 87.7684 131.027 89.6514 133.606 92.6234C134.014 95.8676 137.001 91.6705 137.408 95.5727C137.476 96.2306 137.68 100.632 140.712 98.4992C141.052 102.129 145.895 109.48 145.895 109.706C145.895 116.218 140.758 113.949 148.61 118.917C148.95 119.144 150.466 126.767 158.047 122.434C159.926 121.367 158.59 118.032 164.972 117.738C169.883 117.511 171.196 109.185 171.309 114.176C171.399 117.238 176.129 116.49 177.6 109.843C179.297 102.265 177.17 114.04 184.638 107.37C184.864 107.211 185.068 107.029 185.249 106.893Z" fill="#D4DEF7"/>
<path fill-rule="evenodd" clip-rule="evenodd" d="M228.836 73.9523C228.655 69.9367 227.75 71.2526 225.894 69.1881C225.034 68.2125 223.79 67.8495 222.047 69.6191C221.187 70.5039 219.218 69.7779 217.612 71.8651C216.797 72.9087 217.589 74.4967 219.241 74.7009C217.996 77.0377 220.418 76.0621 220.44 77.4914C220.463 78.2627 220.848 78.3988 221.391 78.0132C222.387 77.7182 222.794 77.7636 222.884 79.4197C222.952 80.5087 224.627 77.5594 225.849 77.8771C226.754 78.3989 227.365 79.8735 228.791 79.1929C229.674 78.7618 230.239 76.9469 229.198 76.0167C228.587 75.3815 228.836 74.2472 228.836 73.9523Z" fill="#D4DEF7"/>
<path fill-rule="evenodd" clip-rule="evenodd" d="M234.018 42.9622C249.611 58.5933 257.395 79.0794 257.395 99.5428C257.395 120.006 249.611 140.515 234.018 156.123C218.426 171.754 197.99 179.559 177.578 179.559C157.142 179.559 136.707 171.754 121.137 156.123C118.919 153.9 116.86 151.586 114.959 149.181L120.775 143.373C122.653 145.801 124.69 148.138 126.908 150.361C140.916 164.381 159.247 171.414 177.6 171.414C195.954 171.414 214.284 164.404 228.293 150.361C242.278 136.341 249.294 117.942 249.294 99.5428C249.294 81.1439 242.301 62.7677 228.293 48.7246C226.075 46.5014 223.744 44.4595 221.322 42.5766L227.138 36.7461C229.492 38.6745 231.823 40.7389 234.018 42.9622Z" fill="#7D98F6"/>
<path d="M185.136 176.518H170.019V202.449H185.136V176.518Z" fill="#7D98F6"/>
<path fill-rule="evenodd" clip-rule="evenodd" d="M164.429 212.455H190.749V207.464C190.749 204.719 188.508 202.473 185.77 202.473H169.408C166.67 202.473 164.429 204.719 164.429 207.464V212.455Z" fill="#7D98F6"/>
<path fill-rule="evenodd" clip-rule="evenodd" d="M95.3604 119.258C95.3604 119.258 93.3237 116.989 92.5769 114.879C92.0338 113.382 91.8527 107.506 97.7593 107.347C97.7593 107.347 99.4566 107.234 101.199 108.028C102.58 108.663 104.707 110.183 103.53 115.537L103.304 117.307L95.3604 119.258Z" fill="#274590"/>
<path fill-rule="evenodd" clip-rule="evenodd" d="M96.6057 115.945C96.6057 115.945 96.7189 124.022 97.0358 127.152C97.1942 128.718 97.2394 129.988 98.3936 130.873C98.3936 130.873 95.9948 131.531 95.0669 130.986C95.0669 130.986 95.2706 131.281 95.4516 131.417C95.4516 131.417 92.7586 131.985 91.4913 131.304C89.5903 130.442 86.852 107.347 95.3158 107.846C95.3158 107.846 102.739 105.918 103.395 113.427C105.002 122.184 106.993 129.648 107.83 131.077C107.061 131.69 104.753 130.465 104.391 129.807C104.074 129.217 103.825 128.514 103.734 128.355C103.734 128.355 104.345 130.442 104.504 130.533C104.504 130.533 101.403 130.714 99.9325 129.943C98.4841 129.172 96.4926 117.533 96.6057 115.945Z" fill="#274590"/>
<path fill-rule="evenodd" clip-rule="evenodd" d="M83.7965 214.95C83.7965 214.95 82.4613 216.289 82.416 216.765C82.3934 217.241 82.3029 222.482 82.846 222.981C83.3891 223.48 85.0185 223.821 84.498 224.365C84.1133 224.773 81.0808 224.683 79.0893 224.569C78.501 224.547 77.7768 219.805 77.5505 219.124C77.211 218.104 76.0116 215.903 76.3058 215.222C76.4642 214.882 77.5505 214.088 78.5688 213.43C79.6098 212.727 80.6282 211.184 80.6282 211.184L83.7965 214.95Z" fill="#FFDBA8"/>
<path fill-rule="evenodd" clip-rule="evenodd" d="M78.637 213.407C78.637 213.407 81.4432 222.074 82.6653 222.482C82.9821 222.595 84.8152 223.094 85.1094 223.798L85.132 223.866C85.2225 224.32 84.8604 224.705 84.4078 224.705H78.6596C78.6596 224.705 77.8449 220.803 77.5281 219.079C77.5281 219.079 75.8082 214.882 76.0119 214.496C76.1703 214.111 78.637 213.407 78.637 213.407Z" fill="#274590"/>
<path fill-rule="evenodd" clip-rule="evenodd" d="M101.788 218.217L100.588 221.665C100.498 222.233 100.158 223.571 100.158 224.07C100.158 225.953 108.464 222.482 106.585 221.665C106.404 221.597 105.884 220.985 105.838 220.35C105.748 219.374 106.54 218.149 106.54 218.149L101.788 218.217Z" fill="#FFDBA8"/>
<path fill-rule="evenodd" clip-rule="evenodd" d="M99.6841 224.705L100.635 221.665C100.635 221.665 102.626 222.527 103.622 222.368C104.618 222.209 106.564 221.665 106.564 221.665C110.547 222.98 113.806 223.638 113.217 224.705H99.6841Z" fill="#274590"/>
<path fill-rule="evenodd" clip-rule="evenodd" d="M111.859 151.745L113.466 160.479C113.466 160.479 117.449 188.27 117.064 190.153C116.159 194.759 106.993 219.759 106.993 219.759L101.132 219.011L107.582 189.427L96.855 161.636L111.859 151.745Z" fill="#3C5EB4"/>
<path fill-rule="evenodd" clip-rule="evenodd" d="M101.109 156.6L96.8089 161.614L92.5996 187.908L79.3381 212.432C79.3381 212.432 81.3296 215.518 83.4795 215.994L102.308 191.22L112.492 160.185L112.13 153.288L101.109 156.6Z" fill="#4468C5"/>
<path fill-rule="evenodd" clip-rule="evenodd" d="M134.693 129.444C134.603 129.172 133.743 127.584 133.743 127.584C133.743 127.584 133.697 124.929 133.765 124.884C135.236 124.271 136.73 124.929 136.934 126.449V126.495C136.979 129.353 135.485 131.985 133.064 133.346C132.521 133.664 131.932 133.981 131.321 134.321C131.299 133.187 131.14 132.053 130.778 130.964C132.996 130.192 134.738 129.535 134.693 129.444Z" fill="#FFDBA8"/>
<path fill-rule="evenodd" clip-rule="evenodd" d="M105.68 127.56C105.68 127.402 121.816 131.757 121.816 131.757C121.816 131.757 127.496 129.874 131.66 128.4C132.09 129.693 132.294 131.031 132.362 132.393C128.492 134.616 124.056 137.089 122.97 137.361C120.91 137.883 109.256 136.159 109.256 136.159C109.256 136.159 105.68 127.651 105.68 127.56Z" fill="#4D71CB"/>
<path fill-rule="evenodd" clip-rule="evenodd" d="M116.227 160.819C116.181 160.593 115.797 149.726 113.217 140.742C111.225 133.777 107.174 128.309 105.749 127.561C105.228 127.266 101.291 127.629 101.291 127.629L103.35 129.444C105.545 131.599 106.654 133.8 108.193 136.567C112.651 144.576 110.569 164.359 110.999 164.336C111.474 164.291 116.408 161.75 116.227 160.819Z" fill="#6185E0"/>
<path fill-rule="evenodd" clip-rule="evenodd" d="M134.127 116.217L136.956 116.989L133.901 131.44L128.56 122.388L134.127 116.217Z" fill="#D4DEF7"/>
<path fill-rule="evenodd" clip-rule="evenodd" d="M132.09 114.811L132.385 125.837L128.651 122.32L132.09 114.811Z" fill="#D4DEF7"/>
<path fill-rule="evenodd" clip-rule="evenodd" d="M112.402 120.279L112.855 129.467L128.922 122.23L112.402 120.279Z" fill="#D4DEF7"/>
<path fill-rule="evenodd" clip-rule="evenodd" d="M137.296 116.876L134.444 141.174C134.444 141.287 134.376 141.378 134.286 141.446L128.447 145.484L129.941 121.867L136.707 116.536C136.979 116.354 137.318 116.559 137.296 116.876Z" fill="#4D71CB"/>
<path fill-rule="evenodd" clip-rule="evenodd" d="M101.924 127.539L96.7871 127.834C96.7871 127.834 95.4292 129.513 95.384 129.535C94.8408 129.649 97.2396 150.974 97.7375 158.892C98.2128 166.81 100.204 164.586 100.204 164.586C100.204 164.586 105.703 166.628 110.705 165.108C115.932 163.543 114.145 156.918 114.145 156.918C114.145 156.918 110.886 142.422 109.098 137.975C107.31 133.551 101.924 127.539 101.924 127.539Z" fill="#F5FAFB"/>
<path fill-rule="evenodd" clip-rule="evenodd" d="M100.837 124.091L101.652 126.541L101.788 126.972C101.788 126.972 103.462 131.055 102.512 132.099C101.561 133.143 96.7637 127.834 96.7637 127.834L95.7227 120.279L100.837 124.091Z" fill="#FFDBA8"/>
<path fill-rule="evenodd" clip-rule="evenodd" d="M96.0848 122.752C97.4879 125.112 99.9772 126.246 101.652 126.541L100.837 124.114L95.7227 120.302L96.0848 122.752Z" fill="#ED9654"/>
<path fill-rule="evenodd" clip-rule="evenodd" d="M96.8088 111.885C98.9134 110.615 101.629 111.681 102.421 114.018C102.761 115.016 103.168 116.309 103.462 117.761C104.186 121.187 103.1 124.907 101.561 125.225C100.045 125.52 95.4057 124.159 94.3194 119.281C93.6631 116.264 94.591 113.224 96.8088 111.885Z" fill="#FFDBA8"/>
<path fill-rule="evenodd" clip-rule="evenodd" d="M96.7863 127.855C96.7863 127.855 91.8076 128.672 90.4272 129.943C89.5672 130.714 91.1287 140.016 91.1287 140.016C91.1287 140.016 93.9575 148.977 94.1838 151.699C94.9306 160.955 94.5459 169.395 94.9985 169.69C97.6237 170.733 106.744 169.395 107.128 168.351C111.383 156.69 96.7863 127.855 96.7863 127.855Z" fill="#6185E0"/>
<path fill-rule="evenodd" clip-rule="evenodd" d="M91.8081 139.631C91.8081 139.631 101.403 153.106 103.983 153.991C106.563 154.853 111.067 136.817 111.067 136.817C111.067 136.817 114.461 133.029 114.755 132.893C115.887 132.393 112.085 133.006 112.085 133.006L110.388 129.308C110.388 129.308 110.229 129.399 109.55 131.032C108.645 133.21 108.215 136.273 107.763 136.908L103.101 143.941L96.5605 134.571L91.8081 139.631Z" fill="#FFDBA8"/>
<path fill-rule="evenodd" clip-rule="evenodd" d="M129.963 121.867L127.926 122.344L126.478 146.8L128.446 145.484L129.963 121.867Z" fill="#4D71CB"/>
<path fill-rule="evenodd" clip-rule="evenodd" d="M111.248 147.298C111.293 147.752 126.478 146.799 126.478 146.799L127.926 122.343L110.274 122.207C109.867 122.207 111.248 147.298 111.248 147.298Z" fill="#6185E0"/>
<path fill-rule="evenodd" clip-rule="evenodd" d="M107.989 135.796L110.772 138.882C110.772 138.882 107.174 155.08 104.481 155.193C101.788 155.284 92.4643 142.262 90.4275 138.496C88.4134 134.73 88.8434 130.873 90.6764 129.671C92.5095 128.468 95.2026 131.44 96.3115 132.733C97.3977 134.027 103.078 143.941 103.078 143.941L107.989 135.796Z" fill="#4D71CB"/>
<path fill-rule="evenodd" clip-rule="evenodd" d="M136.3 126.313C136.3 126.313 136.413 125.678 136.413 125.315C136.413 124.952 134.082 124.475 133.471 125.269C132.86 126.041 135.191 126.132 136.3 126.313Z" fill="#FFDBA8"/>
<path fill-rule="evenodd" clip-rule="evenodd" d="M136.64 127.651C136.64 127.651 136.956 126.971 136.956 126.608C136.934 126.245 133.901 125.791 133.313 126.562C132.679 127.356 135.531 127.493 136.64 127.651Z" fill="#FFDBA8"/>
<path fill-rule="evenodd" clip-rule="evenodd" d="M136.05 128.9C136.05 128.9 136.367 128.197 136.367 127.834C136.367 127.494 134.036 127.017 133.425 127.789C132.814 128.56 134.941 128.696 136.05 128.9Z" fill="#FFDBA8"/>
<path fill-rule="evenodd" clip-rule="evenodd" d="M110.184 131.055L110.863 130.782C111.044 130.714 111.248 130.624 111.406 130.51C112.108 130.079 114.032 128.968 114.326 129.33C114.688 129.784 111.723 131.463 111.723 131.463C111.723 131.463 115.027 129.807 115.231 130.419C115.412 131.032 112.017 132.529 112.017 132.529C112.017 132.529 115.05 131.372 115.208 131.69C115.367 132.008 111.882 134.299 111.882 134.299C111.882 134.299 114.756 132.529 115.186 132.847C115.616 133.142 110.727 137.997 110.727 137.997L110.184 131.055Z" fill="#FFDBA8"/>
<path fill-rule="evenodd" clip-rule="evenodd" d="M136.05 128.9C136.05 128.9 134.036 128.491 133.697 128.945C133.357 129.399 135.711 130.238 135.711 130.238L135.665 130.851C135.665 130.851 136.548 129.467 136.05 128.9Z" fill="#FFDBA8"/>
<path fill-rule="evenodd" clip-rule="evenodd" d="M100.045 109.91C103.983 111.407 103.1 113.041 104.345 114.788C104.345 114.788 104.798 110.908 102.783 109.161C100.611 107.301 100.045 109.91 100.045 109.91Z" fill="#274590"/>
<path fill-rule="evenodd" clip-rule="evenodd" d="M100.498 109.661C100.498 109.661 100.023 115.446 96.4927 117.874C96.4927 117.874 99.7515 113.813 99.4573 110.092C99.1631 106.372 100.498 109.661 100.498 109.661Z" fill="#274590"/>
<path fill-rule="evenodd" clip-rule="evenodd" d="M101.403 109.48C100.883 109.343 100.566 109.434 100.43 109.775C100.679 110.5 101.132 111 101.765 111.272C101.539 110.977 101.403 110.387 101.403 109.48Z" fill="#274590"/>
<path fill-rule="evenodd" clip-rule="evenodd" d="M95.8584 108.936C96.4468 108.664 96.6731 108.301 96.5147 107.869C95.7 107.393 94.8853 107.28 94.0706 107.552C94.5232 107.62 95.1342 108.096 95.8584 108.936Z" fill="#274590"/>
<path fill-rule="evenodd" clip-rule="evenodd" d="M100.611 109.003C100.611 109.003 99.5249 114.63 96.6282 115.945C93.7315 117.239 92.2605 116.649 92.2605 116.649C92.2605 116.649 94.2746 114.403 94.2067 111.068C94.2067 111.068 98.6876 106.735 100.611 109.003Z" fill="#274590"/>
<path d="M93.2568 117.374C92.51 117.374 92.1026 117.215 92.0347 117.192L91.2427 116.875L91.8084 116.24C91.8311 116.217 93.6642 114.107 93.5963 111.067V110.795L93.7773 110.613C93.9131 110.5 96.7872 107.709 99.1408 107.709C99.9102 107.709 100.589 108.004 101.064 108.572L101.245 108.798L101.2 109.093C101.155 109.343 100.023 115.06 96.8551 116.467C95.203 117.238 93.981 117.374 93.2568 117.374ZM94.8183 111.339C94.7957 113.517 93.9583 115.219 93.3473 116.172C93.981 116.149 94.9993 116.013 96.3798 115.378C98.5976 114.402 99.6839 110.364 99.9554 109.207C98.7786 108.277 95.8819 110.364 94.8183 111.339Z" fill="#274590"/>
<path fill-rule="evenodd" clip-rule="evenodd" d="M92.8948 116.399C93.619 115.65 94.2526 115.514 94.8184 115.968C95.1126 117.443 94.841 118.713 94.0036 119.802C94.1394 119.053 93.7774 117.919 92.8948 116.399Z" fill="#274590"/>
<path fill-rule="evenodd" clip-rule="evenodd" d="M102.082 112.043C102.218 110.523 102.557 110.024 103.078 110.568C103.847 112.86 104.187 115.06 104.096 117.17C103.893 115.9 103.214 114.198 102.082 112.043Z" fill="#274590"/>
<path fill-rule="evenodd" clip-rule="evenodd" d="M98.2123 110.455C97.5108 109.094 97.5108 108.504 98.235 108.663C100.113 110.183 101.607 111.839 102.671 113.631C101.267 112.724 98.2349 111.726 98.2123 110.455Z" fill="#274590"/>
<path fill-rule="evenodd" clip-rule="evenodd" d="M95.9489 108.777C95.6773 108.64 95.5189 108.346 95.4736 107.892C95.6547 107.234 95.9262 106.962 96.2657 107.03C96.1299 107.211 96.0168 107.778 95.9489 108.777Z" fill="#274590"/>
<path fill-rule="evenodd" clip-rule="evenodd" d="M94.501 122.139C94.501 122.048 94.5236 121.957 94.5236 121.867C94.1615 121.141 93.9352 120.278 93.8899 119.303C93.0526 118.781 91.559 119.598 90.269 120.233C90.6085 125.769 91.5364 131.259 91.9211 131.622C92.7358 132.348 94.3652 131.985 94.3652 131.985C94.252 131.849 94.0936 131.531 94.0936 131.531C94.7047 132.121 96.1304 131.644 96.1304 131.644C95.3609 130.692 95.2478 129.444 95.0668 127.879C94.8857 126.54 94.682 124.271 94.501 122.139Z" fill="#274590"/>
<path fill-rule="evenodd" clip-rule="evenodd" d="M105.749 125.769C105.749 125.701 105.749 125.633 105.749 125.587C105.477 125.111 104.504 125.292 104.436 124.612C103.825 124.294 102.829 124.929 101.992 125.428C102.467 129.217 103.101 131.35 103.372 131.577C103.961 132.053 105.07 131.713 105.07 131.713C104.979 131.622 104.866 131.418 104.866 131.418C105.319 131.803 107.559 131.214 107.559 131.214C106.993 130.601 106.314 129.149 106.111 128.083C105.952 127.153 105.975 127.221 105.749 125.769Z" fill="#274590"/>
<path fill-rule="evenodd" clip-rule="evenodd" d="M240.513 106.394C238.703 104.692 233.656 102.832 230.646 101.902C227.501 101.494 224.083 101.312 220.349 101.38C214.058 101.312 207.292 101.38 200.05 101.584C200.729 98.5216 200.774 93.9843 200.253 87.9723C199.122 87.4278 197.719 87.2917 196.067 87.5412C193.691 100.155 194.279 106.008 196.18 108.912C201.543 110.364 206.703 111.158 210.641 111.544C211.772 118.781 212.61 125.768 213.198 132.484C211.999 139.562 211.433 144.371 211.501 146.935C222.522 148.568 231.37 148.614 238.046 147.071C237.865 145.029 237.028 142.193 236.508 140.015C237.232 130.941 238.409 125.042 239.02 120.845C243.003 128.922 246.51 133.096 249.588 133.414C252.168 132.892 254.974 126.562 257.984 114.425C257.101 113.177 255.947 112.678 254.521 112.928C251.217 117.805 249.316 121.344 248.819 123.545C246.42 115.627 244.044 110.931 240.513 106.394Z" fill="#FE7C11"/>
<path fill-rule="evenodd" clip-rule="evenodd" d="M221.775 100.201C222.454 99.8833 226.143 99.9513 229.809 100.7C229.401 100.11 229.107 99.3161 228.881 98.3633C222.318 97.3651 222.952 95.7543 223.201 95.0057C224.536 91.4665 225.328 89.2432 224.377 88.177C223.88 88.4038 222.861 88.9483 222.454 90.491C222.046 90.2414 221.503 89.9011 221.435 89.4247C221.277 88.0182 221.322 85.0689 219.715 84.8193C219.399 86.1125 219.105 87.4964 218.856 88.9483C218.199 89.4701 215.778 98.7716 221.775 99.5884V100.201Z" fill="#FFDBA8"/>
<path fill-rule="evenodd" clip-rule="evenodd" d="M223.201 95.0288C222.952 95.7774 224.174 97.3882 229.017 98.8855C229.741 98.7721 230.329 98.0461 230.986 97.7512C232.977 96.821 234.539 95.2556 234.856 94.4389C238.68 88.0186 235.127 84.9332 233.181 83.7535C232.751 77.0836 222.794 82.2562 218.222 78.7397C216.14 81.2353 218.267 84.7063 219.738 84.8878C221.345 85.1374 221.3 88.0867 221.458 89.4932C221.526 89.9696 222.047 90.3099 222.477 90.5595C222.771 89.4478 223.314 88.9714 223.812 88.6311C224.242 88.3362 224.355 88.2001 224.581 88.6765C225.102 89.8108 224.4 91.8299 223.201 95.0288Z" fill="#274590"/>
<path fill-rule="evenodd" clip-rule="evenodd" d="M229.809 100.723C230.171 101.064 230.533 101.472 230.872 101.971L230.646 101.903C227.591 101.495 224.264 101.336 220.666 101.381C221.028 100.905 221.413 100.497 221.775 100.224C222.454 99.8841 226.143 99.9521 229.809 100.723Z" fill="#EF822E"/>
<path fill-rule="evenodd" clip-rule="evenodd" d="M196.361 87.4966C196.451 85.001 196.429 83.118 196.972 81.53C198.058 80.5544 197.764 79.7377 198.986 79.4655C200.344 76.6297 200.185 76.1759 200.208 75.1323C201.77 75.3592 201.566 77.5371 200.072 81.5753C199.801 84.0028 200.412 84.7061 201.883 83.7079C202.471 82.0518 203.422 81.6661 204.1 81.7795C204.033 82.0064 203.557 82.9592 202.901 84.5927C202.018 85.9312 201.091 87.0428 200.457 87.2924C200.208 87.4512 200.05 87.6327 199.936 87.8595C198.941 87.4285 197.741 87.3151 196.361 87.4966Z" fill="#FFDBA8"/>
<path fill-rule="evenodd" clip-rule="evenodd" d="M254.952 112.837C255.065 111.317 254.476 110.137 254.544 106.848C255.517 106.916 255.925 107.868 255.812 109.729C256.943 108.594 257.441 107.437 257.305 106.258C257.328 105.6 257.328 105.055 257.328 104.692C258.912 104.216 259.795 105.804 260.021 109.479C259.727 110.568 259.025 111.249 258.64 112.134C258.346 112.701 258.075 113.313 257.78 114.175C257.011 113.2 256.083 112.769 254.952 112.837Z" fill="#FCBD8D"/>
<path fill-rule="evenodd" clip-rule="evenodd" d="M237.141 147.253C238.454 156.214 239.088 170.325 238.997 183.96C240.265 190.425 240.197 200.771 238.794 221.733C236.304 222.232 234.154 222.323 232.344 222.028C229.108 202.472 227.886 192.263 228.632 184.686C227.637 179.241 226.279 169.259 224.559 161.455C222.839 169.259 221.481 179.241 220.485 184.686C221.255 192.263 220.01 202.472 216.774 222.028C214.964 222.323 212.791 222.232 210.324 221.733C208.921 200.771 208.853 190.425 210.121 183.96C210.03 170.212 210.664 155.964 211.999 147.026C222.319 148.478 230.692 148.569 237.141 147.253Z" fill="#4468C5"/>
<path fill-rule="evenodd" clip-rule="evenodd" d="M215.71 225.772C216.321 226.248 216.479 228.494 215.982 230.196C213.967 231.103 211.976 230.854 210.052 229.923C209.079 229.538 207.902 228.902 207.925 228.199C207.97 226.861 207.993 226.838 210.731 225.409C210.686 225.681 210.641 225.931 210.596 226.157C210.709 226.475 210.958 226.702 211.41 226.407C211.908 226.089 211.727 225.023 213.153 225C214.33 224.978 214.352 226.112 214.918 226.498C215.552 226.929 215.687 226.271 215.71 225.772Z" fill="#274590"/>
<path fill-rule="evenodd" clip-rule="evenodd" d="M233.361 225.772C232.75 226.248 232.592 228.471 233.09 230.196C235.127 231.103 237.096 230.854 239.019 229.923C239.313 229.787 240.49 229.402 240.581 229.084C240.897 227.927 240.626 226.407 238.34 225.409C238.385 225.681 238.431 225.931 238.476 226.157C238.363 226.475 238.114 226.702 237.661 226.43C237.163 226.089 237.322 225.046 235.919 225C234.742 224.978 234.742 226.112 234.154 226.498C233.52 226.929 233.384 226.271 233.361 225.772Z" fill="#274590"/>
<path fill-rule="evenodd" clip-rule="evenodd" d="M215.755 222.142C215.551 223.798 215.483 225.228 215.574 226.407C215.461 226.634 215.28 226.725 214.918 226.498C214.352 226.113 214.329 225.001 213.152 225.001C211.727 225.024 211.908 226.09 211.41 226.407C210.957 226.702 210.708 226.475 210.595 226.158C210.822 225.137 210.935 223.685 211.003 221.825C212.768 222.142 214.352 222.256 215.755 222.142Z" fill="#FFDBA8"/>
<path fill-rule="evenodd" clip-rule="evenodd" d="M233.317 222.119C233.52 223.776 233.588 225.205 233.498 226.384C233.611 226.611 233.815 226.725 234.177 226.475C234.742 226.09 234.765 224.978 235.942 224.978C237.368 225.001 237.186 226.067 237.684 226.407C238.137 226.702 238.386 226.453 238.499 226.135C238.273 225.114 238.16 223.662 238.092 221.802C236.327 222.142 234.742 222.233 233.317 222.119Z" fill="#FFDBA8"/>
<path fill-rule="evenodd" clip-rule="evenodd" d="M210.618 111.521C215.28 126.449 212.134 128.332 223.812 137.86C221.436 136.522 219.354 135.637 217.973 134.548C212.768 130.464 213.379 139.221 211.478 146.912C211.41 144.349 211.999 139.539 213.175 132.461C212.587 125.745 211.75 118.758 210.618 111.521ZM250.267 129.058C249.905 126.381 249.407 124.543 248.796 123.499C248.932 122.91 249.181 122.184 249.52 121.39C250.289 124.566 250.538 127.129 250.267 129.058ZM200.072 101.561C198.669 102.083 197.583 102.673 196.836 103.308C198.149 102.151 199.303 101.13 200.299 100.291C200.231 100.745 200.163 101.176 200.072 101.561ZM239.54 117.374C239.495 118.1 239.336 119.257 239.019 120.822C238.408 125.019 237.232 130.918 236.507 139.993C237.005 142.171 237.843 145.006 238.046 147.048C237.911 147.071 237.775 147.116 237.616 147.139C237.367 145.937 236.87 144.349 236.123 142.375C235.285 140.151 234.81 141.445 231.913 142.284C234.674 139.834 234.403 140.741 235.059 137.111C236.462 129.511 237.956 122.932 239.54 117.374Z" fill="#C26218"/>
<path fill-rule="evenodd" clip-rule="evenodd" d="M233.067 85.3181C232.366 84.5468 232.253 83.8889 232.751 83.3444C234.244 83.1402 235.512 83.4805 236.53 84.388C235.806 84.2292 234.652 84.5241 233.067 85.3181Z" fill="#274590"/>
<path fill-rule="evenodd" clip-rule="evenodd" d="M231.8 83.9802C232.14 84.6608 232.57 84.9104 233.068 84.7289C233.611 83.7533 233.701 82.7778 233.362 81.8477C233.294 82.3921 232.773 83.1181 231.8 83.9802Z" fill="#274590"/>
<path fill-rule="evenodd" clip-rule="evenodd" d="M230.714 81.1892C230.465 82.9814 229.379 83.8662 227.456 83.8662C224.378 82.2101 222.794 80.2137 222.703 77.877C223.699 79.0113 226.369 80.1229 230.714 81.1892Z" fill="#274590"/>
<path fill-rule="evenodd" clip-rule="evenodd" d="M232.14 96.4806C231.823 94.6202 230.397 93.6901 227.908 93.6901C222.318 90.1283 222.929 95.1193 223.246 98.1367C224.513 96.9343 226.459 97.5922 232.14 96.4806Z" fill="#274590"/>
<path fill-rule="evenodd" clip-rule="evenodd" d="M224.333 97.4111C224.785 96.5036 225.713 96.2087 227.139 96.5263C230.941 95.392 229.832 97.8421 229.153 99.3622C228.61 98.6362 227.41 98.7042 224.333 97.4111Z" fill="#274590"/>
<path fill-rule="evenodd" clip-rule="evenodd" d="M128.945 30.6211C136.119 30.6211 142.637 33.5477 147.321 38.2665C152.028 42.9853 154.925 49.4964 154.925 56.6881C154.925 63.8797 152.006 70.3908 147.321 75.1096C142.614 79.8285 136.119 82.755 128.945 82.755C121.771 82.755 115.276 79.8285 110.569 75.1096C105.862 70.3908 102.943 63.8797 102.943 56.6881C102.943 49.4964 105.862 42.9626 110.569 38.2665C115.254 33.5477 121.749 30.6211 128.945 30.6211ZM142.772 42.8265C139.242 39.2874 134.354 37.0868 128.945 37.0868C123.536 37.0868 118.648 39.2874 115.118 42.8265C111.587 46.3656 109.392 51.2659 109.392 56.6881C109.392 62.1102 111.587 67.0105 115.118 70.5496C118.648 74.0887 123.536 76.2893 128.945 76.2893C134.354 76.2893 139.242 74.0887 142.772 70.5496C146.303 67.0105 148.498 62.1102 148.498 56.6881C148.498 51.2659 146.303 46.3656 142.772 42.8265Z" fill="#FE7C11"/>
<rect x="137.821" y="44.9751" width="4.49319" height="30.2563" transform="rotate(45 137.821 44.9751)" fill="#FE7C11"/>
<rect x="116.478" y="48.3447" width="4.49319" height="30.2563" transform="rotate(-45 116.478 48.3447)" fill="#FE7C11"/>
</svg>
