<svg width="21" height="20" viewBox="0 0 21 20" fill="none" xmlns="http://www.w3.org/2000/svg">
<path d="M5.49113 11.878L4.86458 14.217L2.57454 14.2654C1.89015 12.996 1.50195 11.5437 1.50195 10.0003C1.50195 8.50793 1.86491 7.10055 2.50827 5.86133H2.50876L4.54754 6.23511L5.44065 8.26166C5.25372 8.80661 5.15184 9.39161 5.15184 10.0003C5.15191 10.661 5.27158 11.294 5.49113 11.878Z" fill="#FBBB00"/>
<path d="M19.3422 8.32227C19.4455 8.8667 19.4994 9.42895 19.4994 10.0036C19.4994 10.6479 19.4317 11.2764 19.3026 11.8827C18.8645 13.9458 17.7197 15.7473 16.1338 17.0221L16.1333 17.0216L13.5654 16.8906L13.2019 14.6218C14.2542 14.0046 15.0766 13.0389 15.5098 11.8827H10.6973V8.32227H15.58H19.3422Z" fill="#518EF8"/>
<path d="M16.1336 17.0173L16.1341 17.0178C14.5917 18.2575 12.6325 18.9993 10.4997 18.9993C7.07227 18.9993 4.09239 17.0836 2.57227 14.2644L5.48886 11.877C6.24891 13.9054 8.20567 15.3494 10.4997 15.3494C11.4857 15.3494 12.4095 15.0828 13.2021 14.6175L16.1336 17.0173Z" fill="#28B446"/>
<path d="M16.2481 3.07392L13.3325 5.46089C12.5121 4.9481 11.5424 4.65187 10.5035 4.65187C8.15751 4.65187 6.16415 6.16208 5.44218 8.26327L2.51026 5.86294H2.50977C4.00763 2.97503 7.02509 1.00195 10.5035 1.00195C12.6872 1.00195 14.6894 1.77982 16.2481 3.07392Z" fill="#F14336"/>
</svg>
