<svg width="21" height="21" viewBox="0 0 21 21" fill="none" xmlns="http://www.w3.org/2000/svg">
<g clip-path="url(#clip0_6449_336203)">
<path d="M5.48918 11.876L4.86263 14.215L2.57258 14.2635C1.8882 12.9941 1.5 11.5417 1.5 9.99839C1.5 8.50597 1.86295 7.0986 2.50631 5.85938H2.5068L4.54559 6.23316L5.4387 8.2597C5.25177 8.80466 5.14989 9.38966 5.14989 9.99839C5.14996 10.659 5.26963 11.292 5.48918 11.876Z" fill="#FBBB00"/>
<path d="M19.3402 8.32031C19.4436 8.86474 19.4975 9.427 19.4975 10.0016C19.4975 10.646 19.4297 11.2745 19.3006 11.8808C18.8625 13.9438 17.7177 15.7453 16.1319 17.0201L16.1314 17.0197L13.5634 16.8886L13.2 14.6198C14.2523 14.0027 15.0747 13.0369 15.5079 11.8808H10.6953V8.32031H15.5781H19.3402Z" fill="#518EF8"/>
<path d="M16.1316 17.0154L16.1321 17.0159C14.5898 18.2556 12.6305 18.9973 10.4977 18.9973C7.07031 18.9973 4.09043 17.0816 2.57031 14.2625L5.48691 11.875C6.24695 13.9034 8.20371 15.3474 10.4977 15.3474C11.4838 15.3474 12.4075 15.0809 13.2002 14.6155L16.1316 17.0154Z" fill="#28B446"/>
<path d="M16.2462 3.07197L13.3306 5.45894C12.5102 4.94615 11.5404 4.64992 10.5015 4.64992C8.15556 4.64992 6.1622 6.16013 5.44023 8.26131L2.5083 5.86098H2.50781C4.00568 2.97307 7.02314 1 10.5015 1C12.6852 1 14.6875 1.77787 16.2462 3.07197Z" fill="#F14336"/>
</g>
<defs>
<clipPath id="clip0_6449_336203">
<rect width="18" height="18" fill="white" transform="translate(1.5 1.5)"/>
</clipPath>
</defs>
</svg>
